<svg width="30" height="32" viewBox="0 0 30 32" fill="none" xmlns="http://www.w3.org/2000/svg">
<g clip-path="url(#clip0_1_336)">
<path d="M6.562 19.3769H8.437C9.47294 19.3769 10.312 18.5089 10.312 17.4394V15.5019C10.312 14.4315 9.47294 13.5644 8.437 13.5644H6.562C5.52607 13.5644 4.68701 14.4315 4.68701 15.5019V17.4394C4.68701 18.5089 5.52607 19.3769 6.562 19.3769ZM6.562 15.5019H8.437V17.4394H6.562V15.5019ZM21.562 27.1269H23.437C24.4729 27.1269 25.312 26.2598 25.312 25.1894V23.2519C25.312 22.1815 24.4729 21.3145 23.437 21.3145H21.562C20.527 21.3145 19.687 22.1815 19.687 23.2519V25.1894C19.687 26.2598 20.526 27.1269 21.562 27.1269ZM21.562 23.2519H23.437V25.1894H21.562V23.2519ZM21.562 19.3769H23.437C24.4729 19.3769 25.312 18.5089 25.312 17.4394V15.5019C25.312 14.4315 24.4729 13.5644 23.437 13.5644H21.562C20.527 13.5644 19.687 14.4315 19.687 15.5019V17.4394C19.687 18.5089 20.526 19.3769 21.562 19.3769ZM21.562 15.5019H23.437V17.4394H21.562V15.5019ZM25.312 1.93945H21.562V0.970702C21.562 0.435943 21.142 0.00195312 20.6245 0.00195312C20.1071 0.00195312 19.687 0.435943 19.687 0.970702V1.93945H10.312V0.970702C10.312 0.435943 9.89201 0.00195312 9.3745 0.00195312C8.85699 0.00195312 8.437 0.435943 8.437 0.970702V1.93945H4.68701C2.6161 1.93945 0.937012 3.67451 0.937012 5.81444V27.1269C0.937012 29.2668 2.6161 31.002 4.68701 31.002H25.312C27.3829 31.002 29.062 29.2669 29.062 27.1269V5.81444C29.062 3.67446 27.3829 1.93945 25.312 1.93945ZM27.187 27.1269C27.187 28.1974 26.348 29.0644 25.312 29.0644H4.68701C3.65107 29.0644 2.81201 28.1964 2.81201 27.1269V9.68944H27.187V27.1269H27.187ZM27.187 7.75194H2.81201V5.81444C2.81201 4.74398 3.65107 3.87695 4.68701 3.87695H8.437V4.8457C8.437 5.38045 8.85699 5.81444 9.3745 5.81444C9.89201 5.81444 10.312 5.38045 10.312 4.8457V3.87695H19.687V4.8457C19.687 5.38045 20.107 5.81444 20.6245 5.81444C21.1419 5.81444 21.562 5.38045 21.562 4.8457V3.87695H25.312C26.348 3.87695 27.187 4.74398 27.187 5.81444V7.75194ZM14.062 27.1269H15.937C16.9729 27.1269 17.812 26.2598 17.812 25.1894V23.2519C17.812 22.1815 16.9729 21.3145 15.937 21.3145H14.062C13.027 21.3145 12.187 22.1815 12.187 23.2519V25.1894C12.187 26.2598 13.0261 27.1269 14.062 27.1269ZM14.062 23.2519H15.937V25.1894H14.062V23.2519ZM14.062 19.3769H15.937C16.9729 19.3769 17.812 18.5089 17.812 17.4394V15.5019C17.812 14.4315 16.9729 13.5644 15.937 13.5644H14.062C13.027 13.5644 12.187 14.4315 12.187 15.5019V17.4394C12.187 18.5089 13.0261 19.3769 14.062 19.3769ZM14.062 15.5019H15.937V17.4394H14.062V15.5019ZM6.562 27.1269H8.437C9.47294 27.1269 10.312 26.2598 10.312 25.1894V23.2519C10.312 22.1815 9.47294 21.3145 8.437 21.3145H6.562C5.52607 21.3145 4.68701 22.1815 4.68701 23.2519V25.1894C4.68701 26.2598 5.52607 27.1269 6.562 27.1269ZM6.562 23.2519H8.437V25.1894H6.562V23.2519Z" fill="black"/>
</g>
<defs>
<clipPath id="clip0_1_336">
<rect width="30" height="31" fill="white" transform="translate(0 0.00195312)"/>
</clipPath>
</defs>
</svg>
