<svg width="30" height="32" viewBox="0 0 30 32" fill="none" xmlns="http://www.w3.org/2000/svg">
<g opacity="0.9">
<path d="M15 0C6.71577 0 0 6.94061 0 15.501C0 24.0613 6.71577 31.0019 15 31.0019C23.2842 31.0019 30 24.0603 30 15.501C30 6.94061 23.2852 0 15 0ZM15 28.0171C8.32082 28.0171 2.8885 22.4028 2.8885 15.501C2.8885 8.59915 8.32082 2.98478 15 2.98478C21.6792 2.98478 27.1115 8.59915 27.1115 15.501C27.1115 22.4038 21.6792 28.0171 15 28.0171Z" fill="black"/>
<path d="M21.3237 14.5059H17.0468C16.8225 14.0114 16.4373 13.6145 15.9598 13.3826V6.10674C15.9598 5.55754 15.5303 5.11182 14.9969 5.11182C14.4645 5.11182 14.0341 5.55754 14.0341 6.10674V13.3826C13.2629 13.7577 12.7266 14.5616 12.7266 15.5008C12.7266 16.7972 13.7433 17.8479 14.9969 17.8479C15.9058 17.8479 16.6838 17.2917 17.0468 16.4958H21.3237C21.8562 16.4958 22.2865 16.05 22.2865 15.5008C22.2865 14.9516 21.8562 14.5059 21.3237 14.5059Z" fill="black"/>
</g>
</svg>
