<svg width="16" height="20" viewBox="0 0 16 20" fill="none" xmlns="http://www.w3.org/2000/svg">
<path fill-rule="evenodd" clip-rule="evenodd" d="M7.49144 4.53576C1.68515 7.7606 0.250496 8.57394 0.155273 8.69489C0.0233863 8.86239 -0.0258951 9.0835 0.0128472 9.33376C0.0463199 9.55001 0.269496 9.82469 0.442463 9.86247C0.512897 9.87786 2.04511 10.0391 3.84733 10.2208C5.64959 10.4025 7.13356 10.5626 7.1451 10.5766C7.1566 10.5906 7.28871 12.3892 7.43863 14.5736C7.58856 16.758 7.7217 18.6159 7.73458 18.7022C7.76471 18.905 8.0011 19.1827 8.17771 19.2228C8.37724 19.2682 8.56097 19.2066 8.69765 19.0485C8.79747 18.933 9.46737 17.196 12.1319 10.1432C15.2921 1.77847 15.4412 1.37214 15.423 1.17621C15.3902 0.823945 15.1796 0.575486 14.8882 0.545441C14.717 0.527764 14.3967 0.70057 7.49144 4.53576Z" fill="#A6A6A6"/>
</svg>
