<svg width="40" height="41" viewBox="0 0 40 41" fill="none" xmlns="http://www.w3.org/2000/svg">
<circle cx="20" cy="20.9883" r="20" fill="url(#paint0_linear_1_148)"/>
<path d="M26.5808 12.9883H14.4192C13.0462 12.9883 12 14.0344 12 15.4075V27.569C12 28.9421 13.0462 29.9883 14.4192 29.9883H26.5808C27.9538 29.9883 29 28.9421 29 27.569V15.4075C29 14.0344 27.9538 12.9883 26.5808 12.9883ZM20.5 26.5883C23.3115 26.5883 25.6 24.3652 25.6 21.6844C25.6 21.2267 25.5346 20.7037 25.4038 20.3114H26.8423V27.2421C26.8423 27.569 26.5808 27.896 26.1885 27.896H14.8115C14.4846 27.896 14.1577 27.6344 14.1577 27.2421V20.246H15.6615C15.5308 20.7037 15.4654 21.1614 15.4654 21.6191C15.4 24.3652 17.6885 26.5883 20.5 26.5883ZM20.5 24.6267C18.6692 24.6267 17.2308 23.1883 17.2308 21.4229C17.2308 19.6575 18.6692 18.2191 20.5 18.2191C22.3308 18.2191 23.7692 19.6575 23.7692 21.4229C23.7692 23.2537 22.3308 24.6267 20.5 24.6267ZM26.7769 17.6306C26.7769 18.0229 26.45 18.3498 26.0577 18.3498H24.2269C23.8346 18.3498 23.5077 18.0229 23.5077 17.6306V15.8652C23.5077 15.4729 23.8346 15.146 24.2269 15.146H26.0577C26.45 15.146 26.7769 15.4729 26.7769 15.8652V17.6306Z" fill="white"/>
<defs>
<linearGradient id="paint0_linear_1_148" x1="8.5" y1="36.4883" x2="35" y2="8.98828" gradientUnits="userSpaceOnUse">
<stop stop-color="#EEA054"/>
<stop offset="0.502762" stop-color="#D64763"/>
<stop offset="1" stop-color="#B62A99"/>
</linearGradient>
</defs>
</svg>
