<svg width="210" height="39" viewBox="0 0 210 39" fill="none" xmlns="http://www.w3.org/2000/svg">
<path d="M0 38.2558L4.42614 30.6047H39.8285L13.2784 15.3023L22.1307 0L44.2546 38.2558H0Z" fill="#667EEA"/>
<path d="M79.4699 30.6246H77.4782V15.3691H61.866L53.8185 29.2791C53.3356 30.1092 52.4504 30.6246 51.4847 30.6246H49.9355V35.4108H79.4699V30.6246ZM65.4606 20.1553H72.1869V30.6246H59.4182L65.4606 20.1553Z" fill="#667EEA"/>
<path d="M104.765 30.6246H107.273C107.91 30.6246 108.453 30.1761 108.574 29.5536L111.323 15.3691H128.572V35.4108H123.281V20.1486H115.79L113.751 30.638C113.214 33.4093 110.78 35.4108 107.95 35.4108H104.758V30.6246H104.765Z" fill="#667EEA"/>
<path d="M144.956 20.1687H135.715V15.3691H130.424V35.4108H144.956C149.175 35.4108 152.595 31.9969 152.595 27.7864C152.595 23.5826 149.175 20.1687 144.956 20.1687ZM144.239 30.6246H135.715V24.9482H144.239C145.808 24.9482 147.082 26.22 147.082 27.7864C147.082 29.3528 145.815 30.6246 144.239 30.6246Z" fill="#667EEA"/>
<path d="M103.23 30.6246H86.2971V27.7797H101.44V23.0002H86.2971V20.1486H102.821V15.3691H81.0059V35.4108L103.23 35.4041V30.6246Z" fill="#667EEA"/>
<path d="M203.63 35.4108H210.001L198.432 15.3691H190.338L178.77 35.4108H185.14L186.522 33.0143H202.255L203.63 35.4108ZM189.278 28.2349L193.946 20.1553H194.824L199.492 28.2349H189.278Z" fill="#667EEA"/>
<path d="M174.443 17.7659H170.493V15.3628H165.202V17.7659H161.252C157.033 17.7659 153.613 21.1798 153.613 25.3903C153.613 29.6008 157.033 33.0147 161.252 33.0147H165.202V35.4178H170.493V33.0147H174.443C178.661 33.0147 182.081 29.6008 182.081 25.3903C182.081 21.1731 178.661 17.7659 174.443 17.7659ZM165.202 28.2218H161.963C160.393 28.2218 159.119 26.95 159.119 25.3836C159.119 23.8172 160.393 22.5454 161.963 22.5454H165.202V28.2218ZM173.725 28.2218H170.486V22.5454H173.725C175.295 22.5454 176.569 23.8172 176.569 25.3836C176.569 26.95 175.295 28.2218 173.725 28.2218Z" fill="#667EEA"/>
</svg>
