<svg width="16" height="18" viewBox="0 0 16 18" fill="none" xmlns="http://www.w3.org/2000/svg">
<path d="M15.7987 16.7782L11.2504 11.9005C12.1314 10.7334 12.6619 9.25044 12.6619 7.63525C12.6619 3.89172 9.82161 0.845703 6.33092 0.845703C2.84024 0.845703 0 3.89168 0 7.63522C0 11.3788 2.84027 14.4248 6.33096 14.4248C7.83704 14.4248 9.21986 13.8559 10.3081 12.9111L14.8564 17.7888C14.9863 17.9282 15.1569 17.9982 15.3276 17.9982C15.4982 17.9982 15.6688 17.9282 15.7987 17.7888C16.0593 17.5094 16.0593 17.0577 15.7987 16.7782ZM6.33096 12.9954C3.57465 12.9954 1.33284 10.5912 1.33284 7.63522C1.33284 4.67926 3.57465 2.27506 6.33096 2.27506C9.08726 2.27506 11.3291 4.67926 11.3291 7.63522C11.3291 10.5912 9.08723 12.9954 6.33096 12.9954Z" fill="#A6A6A6"/>
</svg>
