<svg width="13" height="18" viewBox="0 0 13 18" fill="none" xmlns="http://www.w3.org/2000/svg">
<path fill-rule="evenodd" clip-rule="evenodd" d="M1.96618 0.799707C1.56795 0.934031 0.740281 1.74335 0.350468 2.37954C0.0228623 2.91422 -0.0187822 3.14174 0.00588189 4.26156C0.0223428 5.00818 0.0607882 5.43995 0.177027 6.18379C0.978417 11.3114 4.00534 15.6057 7.91345 17.1593C8.83882 17.5273 9.92188 17.7494 10.5849 17.7073C10.8539 17.6903 10.8965 17.6779 11.115 17.5538C11.5643 17.2987 12.0001 16.8872 12.4471 16.2961C12.8141 15.8108 12.9037 15.586 12.9037 15.1502C12.9037 14.8609 12.8334 14.5435 12.6701 14.0963C12.5044 13.6422 12.3927 13.5147 11.9116 13.2312C11.1625 12.7896 9.70756 12.2026 9.38386 12.2114C9.05817 12.2202 8.76264 12.4495 7.91703 13.3495C7.78368 13.4914 7.66011 13.6075 7.64247 13.6075C7.59161 13.6075 7.14476 13.2887 6.86342 13.0517C6.06909 12.3824 5.05461 11.2559 4.54932 10.4821C3.91098 9.50453 3.36457 8.40757 3.0957 7.56381C3.04424 7.40231 3.0059 7.26683 3.01052 7.26272C3.01514 7.25857 3.20349 7.05402 3.42907 6.80811C4.04967 6.13159 4.27758 5.80375 4.36109 5.46743C4.39644 5.32502 4.39606 5.26248 4.35781 4.92486C4.22404 3.74382 3.88894 2.1622 3.66738 1.66593C3.577 1.46354 3.48174 1.36295 3.15966 1.13003C2.69689 0.795299 2.30265 0.686197 1.96618 0.799707Z" fill="#667EEA"/>
</svg>
