<svg width="40" height="41" viewBox="0 0 40 41" fill="none" xmlns="http://www.w3.org/2000/svg">
<circle cx="20" cy="20.9883" r="20" fill="#7C509A"/>
<path d="M26.2539 11.5342C22.4424 10.8063 18.4843 10.8063 14.6728 11.5342C12.9869 11.8981 10.8613 13.9362 10.4948 15.5376C9.83508 18.6675 9.83508 21.8702 10.4948 25.0001C10.9346 26.6014 13.0602 28.6395 14.6728 29.0034C14.7461 29.0034 14.8194 29.0762 14.8194 29.149V33.7347C14.8194 33.9531 15.1126 34.0986 15.2592 33.8803L17.4581 31.6238C17.4581 31.6238 19.2173 29.8041 19.5105 29.513C19.5105 29.513 19.5838 29.4402 19.6571 29.4402C21.856 29.513 24.1283 29.2946 26.3272 28.9306C28.0131 28.5667 30.1387 26.5286 30.5052 24.9273C31.1649 21.7974 31.1649 18.5947 30.5052 15.4648C30.0654 13.9362 27.9398 11.8981 26.2539 11.5342ZM26.3272 25.2184C25.9607 25.9463 25.5209 26.5286 24.788 26.8926C24.5681 26.9654 24.3482 27.0381 24.1283 27.1109C23.8351 27.0381 23.6152 26.9654 23.3953 26.8926C21.0497 25.9463 18.8508 24.6361 17.0916 22.7436C16.1387 21.6518 15.3325 20.4144 14.6728 19.1042C14.3796 18.4491 14.0864 17.8668 13.8665 17.2117C13.6466 16.6294 14.0131 16.0471 14.3796 15.6104C14.7461 15.1736 15.1859 14.8825 15.699 14.6641C16.0654 14.4457 16.4319 14.5913 16.7251 14.8825C17.3115 15.6104 17.8979 16.3382 18.3377 17.1389C18.6309 17.6484 18.5576 18.2307 18.0445 18.5947C17.8979 18.6675 17.8246 18.7403 17.678 18.8858C17.6047 18.9586 17.4581 19.0314 17.3848 19.177C17.2382 19.3954 17.2382 19.6137 17.3115 19.8321C17.8979 21.5062 18.9974 22.8164 20.6832 23.5443C20.9764 23.6899 21.1963 23.7627 21.5628 23.7627C22.0759 23.6899 22.2958 23.1076 22.6623 22.8164C23.0288 22.5253 23.4686 22.5253 23.9084 22.7436C24.2749 22.962 24.6414 23.2531 25.0811 23.5443C25.4476 23.8354 25.8141 24.0538 26.1806 24.345C26.4005 24.4905 26.4738 24.8545 26.3272 25.2184ZM23.2487 19.7593C23.1021 19.7593 23.1754 19.7593 23.2487 19.7593C22.9555 19.7593 22.8822 19.6137 22.8089 19.3954C22.8089 19.2498 22.8089 19.0314 22.7356 18.8858C22.6623 18.5947 22.5157 18.3035 22.2225 18.0852C22.0759 18.0124 21.9293 17.9396 21.7827 17.8668C21.5628 17.794 21.4162 17.794 21.1963 17.794C20.9764 17.7212 20.9031 17.5756 20.9031 17.3573C20.9031 17.2117 21.123 17.0661 21.2696 17.0661C22.4424 17.1389 23.322 17.794 23.4686 19.177C23.4686 19.2498 23.4686 19.3954 23.4686 19.4681C23.4686 19.6137 23.3953 19.7593 23.2487 19.7593ZM22.5157 16.5566C22.1492 16.411 21.7827 16.2654 21.3429 16.1927C21.1963 16.1927 20.9764 16.1199 20.8298 16.1199C20.6099 16.1199 20.4634 15.9743 20.5366 15.7559C20.5366 15.5376 20.6832 15.392 20.9031 15.4648C21.6361 15.5376 22.2958 15.6831 22.9555 15.9743C24.2749 16.6294 25.0079 17.7212 25.2277 19.177C25.2277 19.2498 25.2277 19.3226 25.2277 19.3954C25.2277 19.5409 25.2277 19.6865 25.2277 19.9049C25.2277 19.9777 25.2277 20.0504 25.2277 20.1232C25.1545 20.4144 24.6414 20.4872 24.5681 20.1232C24.5681 20.0504 24.4948 19.9049 24.4948 19.8321C24.4948 19.177 24.3482 18.5219 24.055 17.9396C23.6152 17.2845 23.1021 16.8478 22.5157 16.5566ZM26.4738 20.9239C26.2539 20.9239 26.1073 20.7055 26.1073 20.4872C26.1073 20.0504 26.034 19.6137 25.9607 19.177C25.6675 16.8478 23.7618 14.9553 21.4895 14.5913C21.123 14.5185 20.7565 14.5185 20.4634 14.4457C20.2435 14.4457 19.9503 14.4457 19.877 14.1546C19.8037 13.9362 20.0236 13.7178 20.2435 13.7178C20.3168 13.7178 20.3901 13.7178 20.3901 13.7178C20.5367 13.7178 23.3953 13.7906 20.3901 13.7178C23.4686 13.7906 26.034 15.8287 26.5471 18.8858C26.6204 19.3954 26.6937 19.9049 26.6937 20.4872C26.8403 20.7055 26.6937 20.9239 26.4738 20.9239Z" fill="white"/>
</svg>
