<svg width="40" height="41" viewBox="0 0 40 41" fill="none" xmlns="http://www.w3.org/2000/svg">
<circle cx="20" cy="20.9883" r="20" fill="#7294C7"/>
<path d="M29.8065 26.1035C29.8065 26.0205 29.7235 26.0205 29.7235 25.9375C29.3914 25.2733 28.6442 24.4431 27.6479 23.5298C27.1498 23.1147 26.9007 22.7826 26.7346 22.6166C26.4856 22.2845 26.4856 22.0354 26.5686 21.7033C26.6516 21.4543 26.9837 21.0391 27.5649 20.2919C27.897 19.8768 28.063 19.6278 28.3121 19.3787C29.5574 17.7182 30.1386 16.6389 29.9725 16.1408L29.8895 16.0578C29.8065 15.9747 29.7235 15.8917 29.5574 15.8917C29.3914 15.8087 29.1423 15.8087 28.8932 15.8917H25.7384C25.6554 15.8917 25.6553 15.8917 25.4893 15.8917C25.4063 15.8917 25.3233 15.8917 25.3233 15.8917H25.2402H25.1572L25.0742 15.9747C24.9912 16.0578 24.9912 16.0578 24.9912 16.1408C24.6591 17.054 24.244 17.8012 23.8288 18.6315C23.5798 19.0466 23.3307 19.4617 23.0816 19.7938C22.8326 20.1259 22.6665 20.375 22.5005 20.541C22.3344 20.707 22.1684 20.7901 22.0854 20.9561C22.0023 21.0391 21.8363 21.1222 21.8363 21.0391C21.7533 21.0391 21.6702 21.0391 21.6702 20.9561C21.5872 20.8731 21.5042 20.7901 21.4212 20.707C21.3382 20.624 21.3382 20.458 21.2551 20.2919C21.2551 20.1259 21.2551 19.9598 21.2551 19.8768C21.2551 19.7938 21.2551 19.5447 21.2551 19.3787C21.2551 19.1296 21.2551 18.9636 21.2551 18.8805C21.2551 18.6315 21.2551 18.2994 21.2551 17.9673C21.2551 17.6352 21.2551 17.3861 21.2551 17.2201C21.2551 17.054 21.2551 16.805 21.2551 16.6389C21.2551 16.3899 21.2551 16.2238 21.2551 16.1408C21.2551 16.0578 21.1721 15.8917 21.1721 15.8087C21.0891 15.7257 21.0061 15.6426 20.923 15.5596C20.84 15.4766 20.674 15.4766 20.591 15.3936C20.1758 15.3106 19.6777 15.2275 19.0966 15.2275C17.7682 15.2275 16.8549 15.3106 16.5228 15.4766C16.3568 15.5596 16.1907 15.6427 16.1077 15.8087C15.9417 15.9747 15.9417 16.0578 16.0247 16.0578C16.4398 16.1408 16.7719 16.3068 16.938 16.5559L17.021 16.722C17.104 16.805 17.104 16.971 17.187 17.2201C17.27 17.4692 17.27 17.7182 17.27 18.0503C17.27 18.5485 17.27 19.0466 17.27 19.3787C17.27 19.7938 17.187 20.0429 17.187 20.2919C17.187 20.541 17.104 20.707 17.021 20.7901C16.938 20.9561 16.9379 21.0391 16.8549 21.0391C16.8549 21.0391 16.8549 21.1222 16.7719 21.1222C16.6889 21.1222 16.6059 21.2052 16.4398 21.2052C16.3568 21.2052 16.1907 21.1222 16.1077 21.0391C15.9417 20.9561 15.7756 20.7901 15.6926 20.624C15.5266 20.458 15.3605 20.2089 15.1945 19.8768C15.0284 19.5447 14.7793 19.2126 14.6133 18.7145L14.4473 18.3824C14.3642 18.2164 14.1982 17.8843 14.0321 17.4692C13.8661 17.054 13.7001 16.722 13.534 16.3068C13.451 16.1408 13.368 16.0578 13.2849 15.9747H13.2019C13.2019 15.9747 13.1189 15.8917 13.0359 15.8917C12.9528 15.8917 12.8698 15.8087 12.7868 15.8087H9.79798C9.46588 15.8087 9.29984 15.8917 9.21682 15.9747L9.13379 16.0578C9.13379 16.0578 9.13379 16.1408 9.13379 16.2238C9.13379 16.3068 9.13379 16.3899 9.21682 16.5559C9.63193 17.5522 10.1301 18.5485 10.6282 19.5447C11.1263 20.458 11.6245 21.2882 11.9566 21.8694C12.3717 22.4505 12.7038 23.0317 13.1189 23.5298C13.534 24.028 13.7831 24.3601 13.8661 24.5261C14.0321 24.6922 14.1152 24.7752 14.1982 24.8582L14.4473 25.1073C14.6133 25.2733 14.8624 25.5224 15.1945 25.7714C15.5266 26.0205 15.9417 26.2696 16.3568 26.5187C16.7719 26.7677 17.27 26.9338 17.7682 27.0998C18.3493 27.2659 18.8475 27.3489 19.3456 27.2659H20.591C20.84 27.2659 21.0061 27.1828 21.1721 27.0168L21.2551 26.9338C21.2551 26.8507 21.3382 26.8507 21.3382 26.7677C21.3382 26.6847 21.3382 26.6017 21.3382 26.4356C21.3382 26.1035 21.3382 25.8545 21.4212 25.6054C21.5042 25.3563 21.5042 25.1903 21.5872 25.0242C21.6703 24.8582 21.7533 24.7752 21.8363 24.6921C21.9193 24.6091 22.0024 24.5261 22.0024 24.5261H22.0854C22.2514 24.4431 22.5005 24.5261 22.6665 24.6921C22.9156 24.8582 23.1647 25.1073 23.3307 25.3563C23.4967 25.6054 23.7458 25.8545 24.0779 26.1866C24.41 26.5187 24.6591 26.7677 24.8251 26.8507L25.0742 27.0168C25.2402 27.0998 25.4063 27.1828 25.6554 27.2659C25.9044 27.3489 26.0705 27.3489 26.2365 27.3489L29.0593 27.2659C29.3084 27.2659 29.5574 27.1828 29.7235 27.0998C29.8895 27.0168 29.9725 26.9338 29.9725 26.7677C29.9725 26.6847 29.9725 26.5187 29.9725 26.4356C29.8065 26.2696 29.8065 26.1866 29.8065 26.1035Z" fill="white"/>
</svg>
