<svg width="40" height="41" viewBox="0 0 40 41" fill="none" xmlns="http://www.w3.org/2000/svg">
<circle cx="20" cy="20.9883" r="20" fill="#F40000"/>
<path d="M28.7131 19.9014C28.7131 19.5135 28.6485 19.061 28.6485 18.5438C28.5839 18.0267 28.5192 17.5095 28.4545 17.057C28.3253 16.5398 28.1313 16.1519 27.7434 15.8287C27.4202 15.5055 26.9677 15.3115 26.5152 15.2469C25.0283 15.0529 22.8303 14.9883 19.8566 14.9883C16.8828 14.9883 14.6202 15.0529 13.198 15.2469C12.7455 15.3115 12.2929 15.5055 11.9697 15.8287C11.6465 16.1519 11.3879 16.5398 11.2586 17.057C11.1293 17.5095 11.0647 17.962 11.0647 18.5438C11 19.061 11 19.5135 11 19.9014C11 20.2893 11 20.7418 11 21.3883C11 22.0347 11 22.5519 11 22.8751C11 23.263 11.0647 23.7156 11.0647 24.2327C11.1293 24.7499 11.1939 25.2671 11.2586 25.7196C11.3879 26.2368 11.5818 26.6246 11.9697 26.9479C12.2929 27.2711 12.7455 27.465 13.198 27.5297C14.6848 27.7236 16.8828 27.7883 19.8566 27.7883C22.8303 27.7883 25.0929 27.7236 26.5152 27.5297C26.9677 27.465 27.4202 27.2711 27.7434 26.9479C28.0667 26.6246 28.3253 26.2368 28.4545 25.7196C28.5838 25.2671 28.6485 24.8145 28.6485 24.2327C28.7131 23.7156 28.7131 23.263 28.7131 22.8751C28.7131 22.4873 28.7131 22.0347 28.7131 21.3883C28.7131 20.7418 28.7131 20.2246 28.7131 19.9014ZM23.2828 21.9055L18.1758 25.0731C18.1111 25.1378 17.9818 25.2024 17.8525 25.2024C17.7232 25.2024 17.6586 25.2024 17.5293 25.1378C17.3354 25.0085 17.2061 24.8145 17.2061 24.556V18.156C17.2061 17.8974 17.3354 17.7034 17.5293 17.5741C17.7232 17.4448 17.9818 17.4448 18.1758 17.5741L23.2828 20.7418C23.4768 20.8711 23.6061 21.065 23.6061 21.259C23.6061 21.4529 23.4768 21.7762 23.2828 21.9055Z" fill="white"/>
</svg>
