<svg width="264" height="231" viewBox="0 0 264 231" fill="none" xmlns="http://www.w3.org/2000/svg">
<path d="M246.922 91.3674C244.041 70.3494 229.825 50.2018 209.838 47.209C195.072 44.9944 180.414 52.0794 166.079 57.1687C153.48 61.6447 140.085 64.6857 127.138 62.558C106.923 59.24 89.3344 43.6353 68.7717 44.9348C56.7073 45.6981 45.2137 52.5182 37.0384 62.1267C28.8631 71.7351 23.8227 83.9254 21.2385 96.4042C15.4662 124.252 22.6443 155.375 42.8822 173.367C59.3189 187.976 81.7739 192.549 103.341 195.632C121.244 198.186 139.945 199.981 157.293 193.764C164.554 191.163 171.356 187.219 178.564 184.443C186.306 181.453 194.484 179.832 202.648 179.657C206.759 179.573 210.894 179.85 214.958 179.092C232.224 175.887 233.782 161.198 238.175 147.083C243.916 128.652 249.588 110.819 246.922 91.3674Z" fill="#C28221"/>
<g clip-path="url(#clip0_1_521)">
<path d="M76.8598 52.6372H45.3386H36.9009L43.4109 57.3263V66.551C43.4109 67.6147 44.2758 68.4781 45.3412 68.4781H76.8598C77.9252 68.4781 78.7901 67.6147 78.7901 66.551V54.5617C78.7875 53.498 77.9252 52.6372 76.8598 52.6372Z" fill="white"/>
<path d="M75.1926 59.1571C75.1926 59.1961 69.1671 59.2274 61.7323 59.2274C54.2975 59.2274 48.272 59.1961 48.272 59.1571C48.272 59.1181 54.2975 59.0869 61.7323 59.0869C69.1645 59.0869 75.1926 59.1181 75.1926 59.1571Z" fill="#E0E0E0"/>
<path d="M75.1926 62.6991C75.1926 62.7381 69.1671 62.7693 61.7323 62.7693C54.2975 62.7693 48.272 62.7381 48.272 62.6991C48.272 62.6601 54.2975 62.6289 61.7323 62.6289C69.1645 62.6289 75.1926 62.6601 75.1926 62.6991Z" fill="#E0E0E0"/>
<path d="M215.443 156.551C215.443 156.587 174.588 156.619 124.201 156.619C73.7989 156.619 32.9517 156.59 32.9517 156.551C32.9517 156.512 73.7989 156.483 124.201 156.483C174.588 156.483 215.443 156.515 215.443 156.551Z" fill="#263238"/>
<path d="M198.299 143.277C198.299 143.277 191.393 135.342 188.788 127.407C186.183 119.473 187.421 120.383 187.421 120.383C187.421 120.383 190.937 128.091 193.61 131.813C196.28 135.537 201.037 140.999 201.037 140.999L198.299 143.277Z" fill="#455A64"/>
<path d="M199.675 121.621C199.451 121.233 198.859 121.434 198.924 121.876C199.346 124.664 200.256 131.202 200.219 135.446C200.172 140.957 200.222 143.087 200.222 143.087H203.095C203.095 143.087 202.585 131.696 201.936 128.222C201.483 125.787 200.516 123.083 199.675 121.621Z" fill="#455A64"/>
<path d="M201.24 142.161C201.24 142.161 203.048 138.364 203.606 133.594C203.843 131.566 203.421 128.825 202.793 125.166C202.488 123.394 202.42 122.045 202.431 121.111C202.439 120.404 203.371 120.175 203.718 120.791C204.064 121.41 205.07 123.519 205.322 124.843C206.018 128.455 206.807 130.26 206.203 133.688C205.601 137.116 203.374 142.393 203.374 142.393L201.24 142.161Z" fill="#455A64"/>
<path d="M203.83 142.393C203.83 142.393 211.41 126.125 211.937 123.714C212.463 121.301 214.25 115.741 214.458 116.055C214.669 116.37 214.985 119.309 213.617 122.666C212.252 126.024 206.417 142.89 206.417 142.89H203.827" fill="#455A64"/>
<path d="M200.412 141.664C200.409 141.67 200.336 141.618 200.198 141.519C200.063 141.417 199.86 141.274 199.612 141.071C199.107 140.676 198.398 140.073 197.575 139.277C195.921 137.69 193.86 135.243 192.076 132.229C190.286 129.215 189.082 126.268 188.322 124.11C187.941 123.03 187.663 122.146 187.483 121.53C187.389 121.223 187.327 120.984 187.282 120.82C187.238 120.656 187.217 120.57 187.222 120.57C187.228 120.567 187.259 120.651 187.314 120.812C187.371 120.986 187.446 121.22 187.543 121.511C187.741 122.12 188.035 122.996 188.431 124.071C189.218 126.214 190.434 129.145 192.216 132.146C193.996 135.147 196.03 137.594 197.658 139.194C198.468 140 199.164 140.611 199.656 141.022C199.899 141.233 200.097 141.383 200.224 141.493C200.347 141.599 200.414 141.659 200.412 141.664Z" fill="#263238"/>
<path d="M201.24 133.86C201.23 133.86 201.207 133.691 201.173 133.381C201.136 133.046 201.089 132.606 201.032 132.078C200.912 130.978 200.725 129.459 200.456 127.792C200.188 126.125 199.888 124.625 199.657 123.543C199.545 123.023 199.451 122.591 199.38 122.261C199.315 121.959 199.284 121.79 199.294 121.787C199.305 121.785 199.357 121.949 199.44 122.248C199.526 122.547 199.638 122.981 199.769 123.519C200.029 124.596 200.347 126.097 200.615 127.769C200.884 129.441 201.053 130.963 201.144 132.068C201.191 132.619 201.22 133.069 201.233 133.379C201.248 133.688 201.251 133.86 201.24 133.86Z" fill="#263238"/>
<path d="M203.017 120.661C203.022 120.659 203.054 120.732 203.106 120.867C203.163 121.02 203.239 121.22 203.332 121.47C203.434 121.733 203.549 122.055 203.658 122.438C203.77 122.82 203.916 123.249 204.025 123.741C204.085 123.985 204.148 124.24 204.213 124.505C204.275 124.77 204.322 125.054 204.38 125.343C204.505 125.92 204.58 126.547 204.671 127.205C204.82 128.523 204.901 129.982 204.854 131.517C204.791 133.048 204.606 134.5 204.364 135.805C204.226 136.455 204.104 137.074 203.939 137.641C203.861 137.925 203.796 138.203 203.713 138.466C203.629 138.726 203.549 138.976 203.47 139.215C203.325 139.696 203.15 140.115 203.009 140.487C202.871 140.861 202.733 141.176 202.616 141.428C202.504 141.67 202.415 141.865 202.345 142.013C202.283 142.146 202.246 142.216 202.241 142.213C202.236 142.211 202.262 142.138 202.316 142C202.376 141.849 202.457 141.649 202.559 141.402C202.668 141.144 202.798 140.827 202.926 140.453C203.056 140.078 203.226 139.657 203.364 139.176C203.437 138.936 203.515 138.687 203.596 138.427C203.674 138.167 203.736 137.888 203.812 137.605C203.971 137.038 204.085 136.422 204.221 135.774C204.455 134.474 204.635 133.03 204.695 131.509C204.742 129.985 204.666 128.534 204.528 127.22C204.44 126.565 204.369 125.943 204.252 125.366C204.197 125.077 204.156 124.796 204.096 124.531C204.033 124.266 203.976 124.011 203.919 123.767C203.817 123.278 203.679 122.846 203.575 122.464C203.473 122.079 203.366 121.754 203.278 121.488C203.194 121.233 203.129 121.031 203.08 120.875C203.033 120.739 203.012 120.664 203.017 120.661Z" fill="#263238"/>
<path d="M214.372 116.38C214.375 116.38 214.372 116.406 214.367 116.453C214.359 116.511 214.346 116.581 214.333 116.664C214.299 116.849 214.258 117.124 214.185 117.473C214.039 118.172 213.794 119.179 213.416 120.401C213.039 121.624 212.52 123.057 211.905 124.63C211.293 126.206 210.582 127.92 209.91 129.746C209.227 131.569 208.701 133.347 208.206 134.963C207.716 136.578 207.25 138.029 206.802 139.228C206.357 140.427 205.929 141.371 205.604 142.01C205.447 142.333 205.309 142.572 205.218 142.739C205.177 142.814 205.14 142.874 205.111 142.926C205.088 142.967 205.072 142.988 205.07 142.986C205.067 142.983 205.078 142.962 205.096 142.918C205.122 142.866 205.15 142.801 205.187 142.726C205.268 142.557 205.398 142.312 205.544 141.984C205.849 141.339 206.26 140.393 206.69 139.191C207.125 137.992 207.578 136.541 208.06 134.924C208.547 133.308 209.071 131.522 209.756 129.693C210.431 127.863 211.147 126.149 211.765 124.578C212.385 123.01 212.914 121.585 213.304 120.37C213.698 119.155 213.956 118.157 214.122 117.462C214.206 117.116 214.258 116.843 214.302 116.661C214.323 116.578 214.339 116.511 214.352 116.453C214.362 116.404 214.37 116.38 214.372 116.38Z" fill="#263238"/>
<path d="M190.995 112.786C190.518 112.313 189.724 112.807 189.919 113.452C190.12 114.105 190.424 114.947 190.872 115.897C191.914 118.107 194.975 126.042 196.411 130.401C197.844 134.757 199.862 142.887 199.862 142.887L202.923 142.39C202.923 142.39 200.123 129.033 197.388 124.219C195.189 120.354 192.99 114.765 190.995 112.786Z" fill="#455A64"/>
<path d="M197.247 133.127C197.257 133.124 197.312 133.254 197.406 133.493C197.497 133.733 197.62 134.084 197.758 134.518C198.039 135.389 198.385 136.606 198.732 137.959C199.078 139.311 199.368 140.544 199.568 141.436C199.659 141.857 199.737 142.214 199.797 142.494C199.849 142.744 199.87 142.884 199.86 142.887C199.849 142.89 199.805 142.754 199.735 142.507C199.659 142.229 199.566 141.878 199.453 141.462C199.219 140.544 198.912 139.335 198.57 137.998C198.224 136.648 197.896 135.428 197.643 134.549C197.523 134.136 197.422 133.787 197.341 133.509C197.27 133.267 197.237 133.129 197.247 133.127Z" fill="#263238"/>
<path d="M201.399 142.64C201.397 142.64 201.391 142.611 201.381 142.559C201.37 142.496 201.36 142.416 201.347 142.317C201.316 142.106 201.287 141.792 201.222 141.391C201.11 140.588 200.909 139.433 200.581 138.021C200.256 136.608 199.779 134.949 199.148 133.139C198.521 131.329 197.734 129.373 196.84 127.35C195.04 123.306 193.24 119.72 192.06 117.067C191.463 115.743 191 114.664 190.695 113.912C190.539 113.538 190.429 113.241 190.351 113.043C190.317 112.95 190.289 112.877 190.265 112.815C190.247 112.763 190.239 112.737 190.242 112.734C190.244 112.734 190.257 112.757 190.281 112.807C190.307 112.867 190.341 112.939 190.38 113.028C190.471 113.236 190.593 113.522 190.752 113.884C191.075 114.627 191.552 115.699 192.162 117.015C193.37 119.652 195.183 123.23 196.986 127.28C197.88 129.306 198.664 131.269 199.286 133.087C199.909 134.905 200.375 136.572 200.691 137.992C201.006 139.409 201.191 140.572 201.282 141.381C201.337 141.784 201.355 142.099 201.378 142.312C201.386 142.411 201.391 142.491 201.397 142.554C201.402 142.611 201.402 142.64 201.399 142.64Z" fill="#263238"/>
<path d="M202.924 142.393C202.913 142.395 202.877 142.211 202.819 141.88C202.759 141.522 202.679 141.048 202.582 140.476C202.371 139.293 202.048 137.662 201.587 135.888C201.129 134.112 200.613 132.531 200.214 131.397C200.019 130.851 199.857 130.398 199.735 130.055C199.62 129.738 199.563 129.561 199.573 129.558C199.584 129.553 199.662 129.722 199.795 130.034C199.928 130.344 200.11 130.796 200.324 131.361C200.748 132.487 201.285 134.068 201.746 135.849C202.21 137.631 202.515 139.269 202.697 140.461C202.783 141.056 202.851 141.54 202.884 141.875C202.918 142.206 202.934 142.39 202.924 142.393Z" fill="#263238"/>
<path d="M209.204 141.953H197.257V156.483H209.204V141.953Z" fill="#7E5E0F"/>
<g opacity="0.3">
<path opacity="0.3" d="M209.204 141.953H197.257V156.483H209.204V141.953Z" fill="black"/>
</g>
<path d="M205.393 141.953H194.795V156.483H205.393V141.953Z" fill="#7E5E0F"/>
<path d="M50.0902 136.9C48.0556 135.599 45.2343 135.573 43.2545 136.957C41.3737 138.27 40.4202 140.658 40.5036 142.946C40.5869 145.235 41.6967 148.031 43.7755 149.235L49.8713 149.212C51.8173 147.781 53.1355 145.479 53.2266 143.069C53.3178 140.658 52.1247 138.203 50.0902 136.9Z" fill="#455A64"/>
<path d="M47.0891 149.454C47.076 149.454 47.063 149.266 47.05 148.931C47.0396 148.556 47.0265 148.078 47.0083 147.503C46.9771 146.299 46.9302 144.634 46.8494 142.796C46.7686 140.957 46.6697 139.295 46.5941 138.094C46.5602 137.522 46.5316 137.043 46.5081 136.669C46.4899 136.33 46.4873 136.146 46.5003 136.143C46.5134 136.143 46.542 136.328 46.5837 136.661C46.6254 136.996 46.6749 137.483 46.7296 138.083C46.839 139.285 46.9614 140.949 47.0422 142.788C47.1229 144.627 47.149 146.294 47.1438 147.5C47.1412 148.104 47.1334 148.593 47.1229 148.928C47.1151 149.269 47.1021 149.454 47.0891 149.454Z" fill="#263238"/>
<path d="M41.1184 142.426C41.1132 142.481 40.7823 142.497 40.3786 142.463C39.9748 142.429 39.6491 142.359 39.6544 142.307C39.6596 142.252 39.9904 142.236 40.3942 142.27C40.798 142.304 41.121 142.374 41.1184 142.426Z" fill="#263238"/>
<path d="M41.2303 140.374C41.2095 140.424 40.9229 140.346 40.5921 140.198C40.2612 140.052 40.0111 139.893 40.032 139.844C40.0528 139.795 40.3394 139.873 40.6702 140.021C41.0037 140.166 41.2537 140.325 41.2303 140.374Z" fill="#263238"/>
<path d="M42.2907 138.851C42.262 138.895 41.9416 138.744 41.6082 138.468C41.2747 138.193 41.0637 137.907 41.1028 137.87C41.1419 137.834 41.4076 138.052 41.7306 138.318C42.0536 138.585 42.3193 138.804 42.2907 138.851Z" fill="#263238"/>
<path d="M43.3534 137.413C43.3039 137.433 43.1502 137.194 43.0096 136.877C42.8689 136.559 42.7933 136.284 42.8428 136.263C42.8923 136.242 43.046 136.481 43.1867 136.799C43.33 137.116 43.4029 137.389 43.3534 137.413Z" fill="#263238"/>
<path d="M45.0233 136.39C44.9764 136.414 44.8097 136.156 44.7003 135.802C44.5883 135.449 44.5805 135.144 44.6326 135.134C44.6873 135.124 44.7785 135.402 44.8853 135.743C44.9921 136.086 45.0728 136.369 45.0233 136.39Z" fill="#263238"/>
<path d="M47.8109 135.24C47.8604 135.259 47.8318 135.477 47.7406 135.727C47.652 135.979 47.5374 136.166 47.4879 136.151C47.4384 136.133 47.4671 135.914 47.5582 135.664C47.6468 135.412 47.7614 135.222 47.8109 135.24Z" fill="#263238"/>
<path d="M49.8792 136.127C49.9156 136.166 49.7828 136.348 49.5822 136.533C49.3816 136.718 49.1914 136.835 49.155 136.796C49.1185 136.757 49.2513 136.575 49.4519 136.39C49.6499 136.205 49.8427 136.086 49.8792 136.127Z" fill="#263238"/>
<path d="M51.6974 137.301C51.7286 137.345 51.5645 137.506 51.3352 137.662C51.106 137.818 50.895 137.907 50.8637 137.862C50.8325 137.818 50.994 137.657 51.2258 137.501C51.4577 137.345 51.6687 137.256 51.6974 137.301Z" fill="#263238"/>
<path d="M52.9892 139.048C53.0101 139.098 52.7548 139.254 52.4187 139.397C52.0827 139.54 51.7935 139.615 51.7727 139.566C51.7518 139.516 52.0071 139.36 52.3406 139.217C52.6792 139.074 52.9684 138.999 52.9892 139.048Z" fill="#263238"/>
<path d="M53.4976 140.957C53.5055 141.009 53.245 141.087 52.9193 141.126C52.5937 141.168 52.3228 141.155 52.3176 141.103C52.3097 141.051 52.5702 140.973 52.8959 140.934C53.2215 140.892 53.4924 140.902 53.4976 140.957Z" fill="#263238"/>
<path d="M53.7634 143.306C53.7425 143.355 53.4664 143.282 53.146 143.144C52.8256 143.006 52.5859 142.853 52.6067 142.804C52.6276 142.754 52.9037 142.827 53.2241 142.965C53.5446 143.103 53.7842 143.256 53.7634 143.306Z" fill="#263238"/>
<path d="M53.5315 145.321C53.5133 145.37 53.1642 145.287 52.7995 145.048C52.4322 144.811 52.2159 144.525 52.255 144.489C52.2941 144.45 52.5598 144.66 52.9063 144.884C53.2502 145.11 53.5497 145.269 53.5315 145.321Z" fill="#263238"/>
<path d="M52.4791 147.155C52.4478 147.196 52.1691 147.032 51.9033 146.746C51.635 146.46 51.4944 146.171 51.536 146.143C51.5803 146.112 51.7887 146.341 52.044 146.616C52.2993 146.889 52.5129 147.113 52.4791 147.155Z" fill="#263238"/>
<path d="M42.4988 147.37C42.5249 147.417 42.2305 147.62 41.8476 147.818C41.462 148.018 41.1312 148.14 41.1051 148.093C41.0791 148.047 41.3734 147.846 41.7564 147.646C42.1419 147.446 42.4754 147.324 42.4988 147.37Z" fill="#263238"/>
<path d="M41.5876 145.711C41.6111 145.76 41.3766 145.914 41.064 146.054C40.754 146.195 40.4831 146.27 40.4596 146.221C40.4362 146.171 40.6706 146.018 40.9832 145.877C41.2958 145.737 41.5668 145.662 41.5876 145.711Z" fill="#263238"/>
<path d="M40.9178 144.241C40.9256 144.294 40.6364 144.379 40.2743 144.431C39.9122 144.483 39.61 144.481 39.6022 144.429C39.5944 144.377 39.8836 144.291 40.2457 144.239C40.6104 144.187 40.9099 144.187 40.9178 144.241Z" fill="#263238"/>
<path d="M43.1164 143.431C43.132 143.48 42.8506 143.613 42.4755 143.654C42.1004 143.698 41.7982 143.631 41.8008 143.579C41.8034 143.524 42.0978 143.501 42.4521 143.459C42.809 143.423 43.1007 143.379 43.1164 143.431Z" fill="#263238"/>
<path d="M44.9423 141.618C44.958 141.667 44.7339 141.781 44.4317 141.81C44.1296 141.841 43.8899 141.774 43.8951 141.722C43.9003 141.667 44.1322 141.646 44.4135 141.618C44.6949 141.589 44.9267 141.566 44.9423 141.618Z" fill="#263238"/>
<path d="M45.2916 140.164C45.2734 140.216 45.0311 140.177 44.7498 140.08C44.4684 139.984 44.2548 139.865 44.2731 139.813C44.2913 139.763 44.5336 139.8 44.8149 139.896C45.0937 139.995 45.3073 140.114 45.2916 140.164Z" fill="#263238"/>
<path d="M45.9609 138.695C45.9245 138.731 45.7577 138.622 45.6379 138.416C45.5181 138.211 45.5077 138.013 45.5571 137.998C45.6092 137.982 45.7004 138.136 45.8046 138.318C45.9114 138.502 46 138.658 45.9609 138.695Z" fill="#263238"/>
<path d="M45.1533 144.71C45.1663 144.762 44.9553 144.858 44.6844 144.923C44.5281 144.962 44.3848 144.98 44.291 144.98L44.252 144.866C44.3223 144.853 44.3666 144.855 44.377 144.876C44.3848 144.897 44.3588 144.933 44.3014 144.975L44.2624 144.861C44.3457 144.816 44.4812 144.77 44.6375 144.731C44.911 144.671 45.1403 144.658 45.1533 144.71Z" fill="#263238"/>
<path d="M45.5289 147.287C45.5498 147.337 45.2814 147.49 44.9324 147.625C44.5833 147.763 44.2837 147.834 44.2629 147.784C44.242 147.735 44.5103 147.581 44.8594 147.446C45.2111 147.308 45.5107 147.235 45.5289 147.287Z" fill="#263238"/>
<path d="M43.4679 146.143C43.4861 146.195 43.3064 146.302 43.0693 146.38C42.8322 146.46 42.6264 146.484 42.6082 146.434C42.59 146.382 42.7697 146.278 43.0068 146.198C43.2438 146.114 43.4496 146.091 43.4679 146.143Z" fill="#263238"/>
<path d="M43.6243 140.9C43.6113 140.952 43.3013 140.921 42.9418 140.793C42.5823 140.666 42.3218 140.494 42.3452 140.448C42.3687 140.398 42.6578 140.487 43.0069 140.609C43.356 140.734 43.6373 140.845 43.6243 140.9Z" fill="#263238"/>
<path d="M48.6155 140.328C48.6442 140.372 48.4696 140.541 48.2248 140.702C47.9799 140.863 47.7559 140.957 47.7272 140.913C47.6985 140.869 47.8731 140.7 48.118 140.538C48.3628 140.38 48.5869 140.283 48.6155 140.328Z" fill="#263238"/>
<path d="M48.8866 142.915C48.897 142.967 48.7147 143.05 48.475 143.1C48.238 143.149 48.0374 143.147 48.0244 143.095C48.0139 143.043 48.1963 142.959 48.4359 142.91C48.6756 142.861 48.8762 142.863 48.8866 142.915Z" fill="#263238"/>
<path d="M49.2016 145.823C49.1781 145.872 48.915 145.797 48.6102 145.656C48.3054 145.516 48.0788 145.362 48.1023 145.313C48.1257 145.264 48.3888 145.339 48.6936 145.479C48.9984 145.623 49.225 145.776 49.2016 145.823Z" fill="#263238"/>
<path d="M48.5348 148.655C48.4931 148.689 48.3212 148.549 48.1518 148.343C47.9825 148.135 47.8783 147.94 47.9174 147.906C47.9591 147.873 48.131 148.013 48.3003 148.218C48.4723 148.427 48.5765 148.622 48.5348 148.655Z" fill="#263238"/>
<path d="M48.3995 138.424C48.4334 138.465 48.3188 138.609 48.1234 138.705C47.928 138.804 47.7456 138.809 47.7326 138.757C47.717 138.705 47.8603 138.619 48.0348 138.53C48.2119 138.445 48.3656 138.382 48.3995 138.424Z" fill="#263238"/>
<path d="M50.8454 141.033C50.8637 141.082 50.637 141.207 50.327 141.249C50.017 141.293 49.7669 141.233 49.7696 141.181C49.7722 141.126 50.0118 141.095 50.301 141.056C50.5875 141.017 50.8272 140.981 50.8454 141.033Z" fill="#263238"/>
<path d="M50.3585 138.692C50.3819 138.739 50.1579 138.9 49.8375 139.001C49.517 139.103 49.2409 139.103 49.2331 139.051C49.2253 138.996 49.4728 138.913 49.7775 138.817C50.0823 138.718 50.3324 138.642 50.3585 138.692Z" fill="#263238"/>
<path d="M51.3798 144.661C51.3798 144.713 50.9943 144.746 50.5306 144.663C50.0669 144.58 49.7178 144.414 49.736 144.364C49.7543 144.312 50.1164 144.393 50.5644 144.471C51.0125 144.554 51.3798 144.606 51.3798 144.661Z" fill="#263238"/>
<path d="M50.4703 148.062C50.439 148.104 50.1551 147.937 49.8737 147.654C49.5898 147.37 49.4257 147.087 49.4674 147.056C49.5116 147.022 49.7383 147.243 50.0118 147.516C50.2827 147.792 50.5042 148.021 50.4703 148.062Z" fill="#263238"/>
<path d="M46.4743 135.922C46.5029 135.964 45.698 136.289 44.768 137.269C43.838 138.226 42.8793 139.917 42.6422 141.958C42.5302 142.973 42.6266 143.956 42.7699 144.832C42.921 145.709 43.1242 146.489 43.3091 147.139C43.4967 147.789 43.6686 148.309 43.7833 148.668C43.8979 149.03 43.9604 149.23 43.9474 149.235C43.9343 149.24 43.851 149.048 43.7129 148.694C43.5749 148.341 43.3847 147.826 43.1789 147.178C42.9757 146.531 42.7595 145.75 42.5954 144.863C42.4391 143.979 42.3348 142.981 42.4495 141.938C42.6917 139.849 43.6947 138.128 44.669 137.176C45.1535 136.692 45.6094 136.37 45.9428 136.182C46.1044 136.081 46.2424 136.026 46.3336 135.979C46.4222 135.935 46.4691 135.917 46.4743 135.922Z" fill="#263238"/>
<path d="M49.1261 149.357C49.0845 149.336 49.5638 148.598 50.0014 147.272C50.4521 145.958 50.8246 144.015 50.5251 141.906C50.3844 140.853 50.0796 139.878 49.6966 139.045C49.2981 138.224 48.7849 137.55 48.2847 137.079C47.7663 136.622 47.2557 136.359 46.8988 136.205C46.5393 136.055 46.3231 136.021 46.3257 136.005C46.3257 136 46.3804 136.003 46.4846 136.018C46.5862 136.036 46.7373 136.07 46.9249 136.138C47.2974 136.273 47.8236 136.52 48.3733 136.978C48.9073 137.454 49.4361 138.125 49.8582 138.97C50.2593 139.818 50.5746 140.809 50.7178 141.88C51.0226 144.031 50.6214 146.002 50.1317 147.318C50.0223 147.654 49.879 147.942 49.7748 148.2C49.6498 148.45 49.5456 148.668 49.4518 148.84C49.2538 149.18 49.1392 149.365 49.1261 149.357Z" fill="#263238"/>
<path d="M41.5869 148.899H52.3171L52.3823 151.042H41.5869V148.899Z" fill="#8C670D"/>
<path d="M42.499 149.971L43.1164 156.515H50.9602L51.588 150.041L42.499 149.971Z" fill="#8C670D"/>
<path d="M52.3829 151.068C52.3829 151.123 49.968 151.165 46.9878 151.165C44.0077 151.165 41.5928 151.12 41.5928 151.068C41.5928 151.016 44.0077 150.972 46.9878 150.972C49.968 150.972 52.3829 151.014 52.3829 151.068Z" fill="#263238"/>
<path d="M51.2911 153.061C51.3015 153.066 51.2286 153.217 51.0619 153.469C50.8925 153.719 50.6268 154.072 50.2309 154.45L50.1814 154.496L50.1319 154.444C49.6161 153.903 48.9049 153.24 48.0296 152.608L48.1494 152.603C47.8498 152.866 47.5372 153.139 47.2168 153.42C46.8365 153.75 46.4666 154.072 46.1149 154.377L46.055 154.429L45.995 154.377C45.3281 153.815 44.7186 153.305 44.2028 152.874L44.307 152.863C43.937 153.313 43.627 153.693 43.3796 153.992C43.1555 154.257 43.0279 154.398 43.0149 154.39C43.0044 154.382 43.1112 154.221 43.3144 153.942C43.5463 153.633 43.8407 153.24 44.1897 152.775L44.234 152.715L44.2939 152.764C44.8176 153.188 45.435 153.688 46.1123 154.236L45.9898 154.239C46.3415 153.932 46.7088 153.61 47.0866 153.277C47.407 152.996 47.7222 152.725 48.0218 152.463L48.0791 152.413L48.139 152.457C49.0221 153.105 49.7281 153.792 50.2309 154.353L50.1319 154.351C50.9316 153.628 51.2625 153.037 51.2911 153.061Z" fill="#263238"/>
<path d="M180.194 154.717H66.6349C64.5378 154.717 62.8394 153.022 62.8394 150.928V78.5245C62.8394 76.4309 64.5378 74.7352 66.6349 74.7352H180.194C182.291 74.7352 183.99 76.4309 183.99 78.5245V150.928C183.99 153.022 182.291 154.717 180.194 154.717Z" fill="#5862F5"/>
<path d="M185.493 156.551H63.5091C60.9483 156.551 58.8721 154.478 58.8721 151.921V149.552H190.128V151.921C190.13 154.478 188.054 156.551 185.493 156.551Z" fill="#5862F5"/>
<path d="M111.471 148.803L113.101 151.388H136.021L137.532 148.803H111.471Z" fill="#5862F5"/>
<path d="M182.948 148.803C182.948 148.848 156.059 148.882 122.896 148.882C89.7235 148.882 62.8394 148.848 62.8394 148.803C62.8394 148.759 89.7235 148.725 122.896 148.725C156.059 148.725 182.948 148.759 182.948 148.803Z" fill="#5862F5"/>
<path d="M179.195 146.689H67.1624C66.6909 146.689 66.3105 146.307 66.3105 145.838V80.1862C66.3105 79.7155 66.6935 79.3358 67.1624 79.3358H179.195C179.667 79.3358 180.047 79.7181 180.047 80.1862V145.836C180.047 146.307 179.664 146.689 179.195 146.689Z" fill="#EBEBEB"/>
<path d="M179.924 146.788H66.187L66.3094 84.371H179.924V146.788Z" fill="white"/>
<path d="M75.6381 81.9363C75.6381 82.4383 75.2318 82.844 74.729 82.844C74.2262 82.844 73.8198 82.4383 73.8198 81.9363C73.8198 81.4344 74.2262 81.0287 74.729 81.0287C75.2318 81.0287 75.6381 81.437 75.6381 81.9363Z" fill="#5862F5"/>
<path d="M70.1308 81.9363C70.1308 82.4383 69.7244 82.844 69.2217 82.844C68.7189 82.844 68.3125 82.4383 68.3125 81.9363C68.3125 81.4344 68.7189 81.0287 69.2217 81.0287C69.7244 81.0313 70.1308 81.437 70.1308 81.9363Z" fill="#5862F5"/>
<path d="M72.7754 81.9363C72.7754 82.4383 72.369 82.844 71.8662 82.844C71.3634 82.844 70.957 82.4383 70.957 81.9363C70.957 81.4344 71.3634 81.0287 71.8662 81.0287C72.369 81.0313 72.7754 81.437 72.7754 81.9363Z" fill="#5862F5"/>
<path d="M180.046 140.759H66.187V146.788H180.046V140.759Z" fill="#5862F5"/>
<path d="M70.4881 144.471V144.663H69.5816V144.51L70.0713 144.047C70.1911 143.932 70.212 143.862 70.212 143.792C70.212 143.68 70.1338 143.615 69.9827 143.615C69.8629 143.615 69.7639 143.657 69.6936 143.743L69.5347 143.62C69.6284 143.493 69.8004 143.417 70.001 143.417C70.2693 143.417 70.4412 143.553 70.4412 143.771C70.4412 143.891 70.4074 144 70.238 144.159L69.9098 144.471H70.4881Z" fill="white"/>
<path d="M70.6133 143.862C70.6133 143.774 70.6784 143.717 70.7566 143.717C70.8347 143.717 70.8998 143.774 70.8998 143.862C70.8998 143.946 70.8347 144.008 70.7566 144.008C70.6784 144.008 70.6133 143.946 70.6133 143.862ZM70.6133 144.531C70.6133 144.442 70.6784 144.385 70.7566 144.385C70.8347 144.385 70.8998 144.442 70.8998 144.531C70.8998 144.614 70.8347 144.676 70.7566 144.676C70.6784 144.676 70.6133 144.614 70.6133 144.531Z" fill="white"/>
<path d="M71.473 143.436V144.663H71.2463V143.626H70.9858V143.433H71.473V143.436Z" fill="white"/>
<path d="M72.8147 144.385H72.5958V144.663H72.3744V144.385H71.6997V144.226L72.3067 143.436H72.549L71.9784 144.192H72.3822V143.945H72.5958V144.192H72.8147V144.385Z" fill="white"/>
<path d="M168.146 143.893H74.8228V144.317H168.146V143.893Z" fill="white"/>
<path d="M103.916 143.436H74.7524V144.569H103.916V143.436Z" fill="#FF725E"/>
<path d="M104.859 144.106C104.859 144.889 104.223 145.524 103.439 145.524C102.655 145.524 102.02 144.889 102.02 144.106C102.02 143.324 102.655 142.689 103.439 142.689C104.221 142.689 104.859 143.324 104.859 144.106Z" fill="#FF725E"/>
<path d="M170.496 144.093C170.496 144.338 170.298 144.491 170.046 144.491C169.71 144.491 169.514 144.276 169.514 143.88C169.514 143.459 169.759 143.227 170.116 143.227C170.238 143.227 170.356 143.253 170.439 143.305L170.356 143.477C170.288 143.433 170.207 143.417 170.121 143.417C169.889 143.417 169.743 143.56 169.743 143.841V143.844C169.816 143.758 169.936 143.716 170.072 143.716C170.316 143.716 170.496 143.862 170.496 144.093ZM170.275 144.104C170.275 143.976 170.178 143.896 170.03 143.896C169.881 143.896 169.78 143.984 169.78 144.106C169.78 144.221 169.871 144.315 170.035 144.315C170.176 144.312 170.275 144.231 170.275 144.104Z" fill="white"/>
<path d="M170.608 143.672C170.608 143.583 170.674 143.526 170.752 143.526C170.83 143.526 170.895 143.583 170.895 143.672C170.895 143.755 170.83 143.818 170.752 143.818C170.674 143.818 170.608 143.755 170.608 143.672ZM170.608 144.34C170.608 144.252 170.674 144.195 170.752 144.195C170.83 144.195 170.895 144.252 170.895 144.34C170.895 144.423 170.83 144.486 170.752 144.486C170.674 144.486 170.608 144.423 170.608 144.34Z" fill="white"/>
<path d="M171.043 143.859C171.043 143.456 171.265 143.227 171.557 143.227C171.851 143.227 172.072 143.456 172.072 143.859C172.072 144.263 171.851 144.491 171.557 144.491C171.265 144.491 171.043 144.263 171.043 143.859ZM171.841 143.859C171.841 143.563 171.726 143.425 171.557 143.425C171.39 143.425 171.273 143.563 171.273 143.859C171.273 144.156 171.39 144.294 171.557 144.294C171.726 144.294 171.841 144.156 171.841 143.859Z" fill="white"/>
<path d="M172.223 143.859C172.223 143.456 172.445 143.227 172.736 143.227C173.031 143.227 173.252 143.456 173.252 143.859C173.252 144.263 173.031 144.491 172.736 144.491C172.445 144.491 172.223 144.263 172.223 143.859ZM173.02 143.859C173.02 143.563 172.906 143.425 172.736 143.425C172.57 143.425 172.452 143.563 172.452 143.859C172.452 144.156 172.57 144.294 172.736 144.294C172.906 144.294 173.02 144.156 173.02 143.859Z" fill="white"/>
<path d="M175.24 143.784H174.812V142.559H176.037V142.983H175.24V143.784Z" fill="white"/>
<path d="M176.039 145.381H174.812V144.159H175.237V144.957H176.039V145.381Z" fill="white"/>
<path d="M177.991 145.381H176.767V144.957H177.566V144.156H177.991V145.381Z" fill="white"/>
<path d="M177.994 143.781H177.569V142.983H176.767V142.559H177.994V143.781Z" fill="white"/>
<path d="M81.7835 88.0819H75.0807L71.728 93.8763L75.0807 99.6733H81.7835L85.1362 93.8763L81.7835 88.0819Z" fill="#EBEBEB"/>
<path d="M75.6278 95.0102C75.3282 94.6799 75.0261 94.3444 74.8072 93.9543C74.5884 93.5642 74.4582 93.1117 74.5311 92.6695C74.5728 92.4121 74.6822 92.1676 74.7004 91.9075C74.7239 91.5486 74.5728 91.1741 74.7004 90.8386C74.8984 90.3133 75.607 90.2327 76.0368 89.8712C76.3703 89.5877 76.5344 89.13 76.9017 88.8933C77.2221 88.6853 77.6363 88.6905 78.014 88.7451C78.3918 88.7997 78.7747 88.8933 79.1525 88.8439C79.4234 88.8075 79.6761 88.6983 79.9418 88.6332C80.2075 88.5682 80.5019 88.55 80.7363 88.6879C80.9708 88.8257 81.1036 89.1586 80.9499 89.3823C81.3902 89.1794 81.9477 89.5227 82.0675 89.9882C82.1873 90.4563 81.9477 90.9609 81.5752 91.2704C81.2026 91.5798 80.7207 91.7229 80.2466 91.8113C78.9024 92.0636 77.4409 91.9205 76.2817 91.1949" fill="#5862F5"/>
<path d="M81.8435 96.4434C81.7992 95.6138 81.5647 93.913 81.3381 92.3759C81.0932 90.7219 79.6162 89.536 77.9463 89.6478L77.7796 89.6582C75.9977 89.8819 75.1928 91.5177 75.4663 93.2914L75.9899 99.6761H80.3404C80.3404 99.6761 80.2388 98.5552 80.2362 98.5448C80.2362 98.5422 81.9373 98.1599 81.8435 96.4434Z" fill="#FFBE9D"/>
<path d="M80.2358 98.516C80.2358 98.516 79.1547 98.6772 77.9512 98.0297C77.9512 98.0297 78.5634 99.2286 80.2697 98.9607L80.2358 98.516Z" fill="#EB996E"/>
<path d="M80.7829 93.8479C80.7959 93.978 80.6969 94.095 80.5615 94.1106C80.426 94.1262 80.3062 94.0352 80.2931 93.9052C80.2801 93.7751 80.3791 93.6581 80.512 93.6425C80.65 93.6269 80.7699 93.7179 80.7829 93.8479Z" fill="#5862F5"/>
<path d="M81.0228 93.2393C80.9942 93.2731 80.7988 93.1483 80.5357 93.1665C80.2726 93.1821 80.0876 93.3303 80.0564 93.2991C80.0407 93.2861 80.0694 93.2263 80.1475 93.1587C80.2257 93.0911 80.3638 93.0235 80.5279 93.0131C80.692 93.0027 80.8353 93.0547 80.9186 93.1119C81.0072 93.1665 81.0385 93.2237 81.0228 93.2393Z" fill="#5862F5"/>
<path d="M78.2873 94.0246C78.3003 94.1546 78.2013 94.2716 78.0659 94.2872C77.9304 94.3028 77.8106 94.2118 77.7975 94.0818C77.7845 93.9517 77.8835 93.8347 78.0164 93.8191C78.1544 93.8061 78.2743 93.8971 78.2873 94.0246Z" fill="#5862F5"/>
<path d="M78.4281 93.4595C78.3994 93.4933 78.2041 93.3685 77.9409 93.3867C77.6778 93.4023 77.4929 93.5505 77.4616 93.5193C77.446 93.5063 77.4746 93.4465 77.5554 93.3789C77.6336 93.3113 77.7716 93.2437 77.9357 93.2333C78.0999 93.2229 78.2431 93.2749 78.3265 93.3321C78.4125 93.3893 78.4437 93.4439 78.4281 93.4595Z" fill="#5862F5"/>
<path d="M79.5196 95.3536C79.517 95.338 79.6786 95.299 79.9443 95.2469C80.012 95.2365 80.0745 95.2183 80.0823 95.1715C80.0954 95.1221 80.0615 95.0519 80.025 94.9739C79.9495 94.8152 79.8739 94.6488 79.7906 94.4745C79.4649 93.762 79.2227 93.1768 79.2513 93.1638C79.28 93.1508 79.5691 93.7177 79.8948 94.4303C79.9729 94.6072 80.0485 94.7736 80.1214 94.9349C80.1527 95.0103 80.2022 95.0935 80.1735 95.1975C80.1579 95.2495 80.111 95.2886 80.0693 95.3042C80.0276 95.3198 79.9886 95.3224 79.9547 95.3276C79.6864 95.3562 79.5222 95.3692 79.5196 95.3536Z" fill="#5862F5"/>
<path d="M78.4281 92.4222C78.4072 92.495 78.1415 92.4794 77.8341 92.5366C77.5241 92.5887 77.2818 92.6953 77.2349 92.6355C77.2141 92.6069 77.2532 92.5366 77.3496 92.4586C77.4459 92.3832 77.5996 92.3052 77.7846 92.274C77.9696 92.2402 78.1415 92.2584 78.2587 92.2974C78.376 92.3364 78.4359 92.3884 78.4281 92.4222Z" fill="#5862F5"/>
<path d="M80.8742 92.4825C80.8326 92.545 80.645 92.4956 80.4262 92.506C80.2074 92.5112 80.025 92.5736 79.9781 92.5138C79.9573 92.4851 79.9833 92.4227 80.0589 92.3603C80.1344 92.2979 80.2647 92.2433 80.4158 92.2381C80.5668 92.2329 80.6997 92.2771 80.7805 92.3343C80.8638 92.3915 80.8951 92.4513 80.8742 92.4825Z" fill="#5862F5"/>
<path d="M75.6928 94.55C75.6616 94.5396 74.4867 94.2795 74.6039 95.4524C74.7211 96.6228 75.9924 96.2431 75.9898 96.2092C75.9872 96.1728 75.6928 94.55 75.6928 94.55Z" fill="#FFBE9D"/>
<path d="M75.4687 95.8216C75.4635 95.819 75.4505 95.8372 75.4166 95.858C75.3853 95.8762 75.328 95.8918 75.2629 95.8762C75.1353 95.8424 75.0102 95.6578 74.9842 95.4471C74.9711 95.3405 74.9842 95.2365 75.0128 95.1506C75.0389 95.0622 75.091 94.9972 75.1509 94.979C75.2108 94.9582 75.2603 94.992 75.2759 95.0232C75.2942 95.0544 75.289 95.0778 75.2968 95.0804C75.2994 95.083 75.3202 95.0596 75.3046 95.0102C75.2968 94.9868 75.2811 94.9608 75.2499 94.9426C75.2186 94.9218 75.1769 94.914 75.1326 94.9244C75.0441 94.94 74.9685 95.031 74.9373 95.1272C74.9008 95.2235 74.8826 95.3405 74.8982 95.4601C74.9295 95.6942 75.0727 95.9049 75.2473 95.9361C75.3306 95.9491 75.3984 95.9179 75.4322 95.8866C75.4687 95.8502 75.4739 95.8242 75.4687 95.8216Z" fill="#EB996E"/>
<path d="M81.2494 90.7711C81.1686 91.2366 80.223 91.6631 79.4363 91.6423C78.7121 91.6215 78.3552 91.2626 77.829 91.0077C77.4955 90.8465 77.4955 90.8465 77.0449 90.9193C76.6801 90.9791 76.49 91.4082 76.2842 91.7151C76.6749 92.5656 76.516 93.5538 76.3519 94.4745C76.3337 94.5759 76.3102 94.6851 76.2321 94.7553C76.0992 94.8724 75.8856 94.8022 75.758 94.6825C75.5496 94.4927 75.4558 94.2118 75.388 93.9387C75.2317 93.3172 75.1744 92.667 75.2708 92.035C75.3698 91.403 75.6303 90.7867 76.0654 90.3159C76.6072 89.7256 77.3965 89.3849 78.1989 89.3433C78.9986 89.3017 79.8036 89.5487 80.4731 89.9883C80.7831 90.1937 81.0749 90.4434 81.2494 90.7711Z" fill="#5862F5"/>
<path d="M79.692 95.9462C79.4914 95.8526 79.2934 95.7616 79.0928 95.6679C79.059 95.6523 79.0225 95.6367 78.9834 95.6393C78.9418 95.6445 78.9079 95.6757 78.8792 95.7095C78.7412 95.876 78.7047 96.1309 78.8141 96.3207C78.9209 96.5106 79.1736 96.6094 79.3742 96.5262C79.5852 96.4377 79.6894 96.1933 79.705 95.9644L79.692 95.9462Z" fill="#EB996E"/>
<path d="M79.3946 96.5706C79.405 96.581 79.2695 96.6668 79.0429 96.6018C78.9335 96.568 78.8084 96.4848 78.7329 96.3495C78.6547 96.2169 78.6261 96.0297 78.6938 95.8606C78.7251 95.7774 78.7772 95.702 78.8397 95.6448C78.871 95.6162 78.9022 95.5901 78.9413 95.5693C78.9804 95.5407 79.0611 95.5381 79.0976 95.5589C79.2331 95.6344 79.3268 95.6994 79.418 95.7592C79.5926 95.8762 79.6968 95.9542 79.6863 95.9724C79.6759 95.9881 79.5561 95.9386 79.3685 95.8424C79.2591 95.7852 79.1549 95.7306 79.0481 95.676C79.022 95.6682 79.0247 95.6682 79.0012 95.6812C78.9778 95.6968 78.9491 95.7176 78.9283 95.741C78.8814 95.7878 78.8423 95.845 78.8189 95.91C78.7668 96.0401 78.785 96.1831 78.8423 96.2923C78.8996 96.4016 78.9882 96.4744 79.0768 96.5134C79.2591 96.5888 79.392 96.5472 79.3946 96.5706Z" fill="#5862F5"/>
<path d="M79.2071 93.8763C79.1941 93.8763 79.1967 93.7671 79.142 93.585C79.0899 93.4056 78.9649 93.1429 78.6939 92.9427C78.4308 92.7424 78.001 92.6306 77.5868 92.7866C77.1752 92.9297 76.8209 93.3666 76.8261 93.8763C76.8209 94.3861 77.1752 94.823 77.5868 94.966C78.001 95.1221 78.4308 95.0102 78.6939 94.81C78.9649 94.6097 79.0925 94.3471 79.142 94.1676C79.1967 93.9856 79.1941 93.8763 79.2071 93.8763C79.2123 93.8763 79.2149 93.9023 79.2175 93.9543C79.2201 94.0064 79.2149 94.0844 79.1941 94.1806C79.155 94.3731 79.0378 94.6591 78.7512 94.8854C78.4751 95.1117 78.0036 95.2469 77.5425 95.0831C77.084 94.9322 76.6828 94.4459 76.688 93.8763C76.6828 93.3068 77.084 92.8204 77.5425 92.6696C78.0062 92.5032 78.4751 92.6384 78.7512 92.8673C79.0378 93.0935 79.155 93.3822 79.1941 93.572C79.2149 93.6683 79.2201 93.7463 79.2175 93.7983C79.2149 93.8503 79.2123 93.8763 79.2071 93.8763Z" fill="#5862F5"/>
<path d="M82.1327 93.7618C82.1197 93.7618 82.1197 93.6551 82.0702 93.4783C82.0207 93.304 81.8983 93.0492 81.6326 92.8541C81.3773 92.6591 80.9578 92.5524 80.5541 92.7033C80.1529 92.8411 79.809 93.2676 79.8142 93.7644C79.809 94.2611 80.1555 94.685 80.5541 94.8255C80.9578 94.9763 81.3773 94.8697 81.6326 94.6746C81.8983 94.4796 82.0207 94.2247 82.0702 94.0504C82.1223 93.8684 82.1197 93.7618 82.1327 93.7618C82.1379 93.7618 82.1405 93.7878 82.1431 93.8398C82.1457 93.8892 82.1405 93.9646 82.1223 94.0608C82.0858 94.2481 81.9712 94.5264 81.6925 94.75C81.4242 94.9711 80.9657 95.1037 80.5124 94.9425C80.0643 94.7942 79.6736 94.3209 79.6788 93.7644C79.6736 93.2078 80.0643 92.7345 80.5124 92.5862C80.9631 92.425 81.4215 92.5576 81.6925 92.7787C81.9712 92.9998 82.0858 93.2806 82.1223 93.4679C82.1431 93.5615 82.1457 93.6369 82.1431 93.6889C82.1405 93.7358 82.1379 93.7618 82.1327 93.7618Z" fill="#5862F5"/>
<path d="M79.7465 93.4914C79.7205 93.5174 79.6033 93.442 79.447 93.4472C79.2906 93.4472 79.1786 93.5278 79.15 93.5018C79.1135 93.4836 79.2229 93.3145 79.4443 93.3093C79.6658 93.3093 79.7804 93.4732 79.7465 93.4914Z" fill="#5862F5"/>
<path d="M76.8313 93.7019C76.8547 93.7332 76.6255 93.9386 76.3233 94.1649C76.0211 94.3911 75.7554 94.5498 75.7346 94.5186C75.7111 94.4874 75.9404 94.2819 76.2425 94.0556C76.5447 93.832 76.8078 93.6733 76.8313 93.7019Z" fill="#5862F5"/>
<path d="M101.009 93.819C101.009 93.8554 97.9948 93.8866 94.2773 93.8866C90.5599 93.8866 87.5459 93.8554 87.5459 93.819C87.5459 93.7826 90.5599 93.7513 94.2773 93.7513C97.9974 93.7513 101.009 93.78 101.009 93.819Z" fill="#5862F5"/>
<path d="M94.7855 95.2237C94.7855 95.2602 93.186 95.2914 91.2113 95.2914C89.2367 95.2914 87.6372 95.2602 87.6372 95.2237C87.6372 95.1873 89.2367 95.1561 91.2113 95.1561C93.1834 95.1561 94.7855 95.1873 94.7855 95.2237Z" fill="#5862F5"/>
<path d="M141.337 104.209C141.337 104.209 144.914 105.949 146.172 110.443C147.43 114.937 151.275 126.64 151.275 126.64C151.275 126.64 153.474 129.223 153.711 131.134C153.946 133.046 153.477 137.672 152.768 138.536C152.062 139.399 151.054 139.256 151.054 139.256L141.798 138.38L138.154 114.016L141.337 104.209Z" fill="#5862F5"/>
<path d="M110.731 103.783C110.731 103.783 104.114 105.855 102.465 107.658L107.883 132.825L107.797 140.765H139.173C139.173 140.372 139.454 114.401 139.454 114.401L141.337 104.209L130.185 102.248L127.987 100.524L115.579 101.151L113.693 103.034L110.731 103.783Z" fill="#5862F5"/>
<g opacity="0.3">
<path opacity="0.3" d="M113.244 125.615C113.148 125.402 113.01 125.171 112.781 125.124C112.403 125.046 112.15 125.493 112.023 125.855C111.004 128.736 109.655 131.386 107.902 133.888L107.821 137.753C109.65 136.216 111.452 134.57 112.619 132.486C113.784 130.406 114.229 127.792 113.244 125.615Z" fill="black"/>
</g>
<path d="M102.465 107.66C102.465 107.66 100.284 110.628 99.3776 112.565C98.4711 114.503 90.9685 130.773 90.5178 132.453C90.0646 134.133 88.9001 139.425 92.3284 140.653H99.3776L106.453 126.367L106.815 109.788L102.465 107.66Z" fill="#5862F5"/>
<path d="M99.8309 130.333C99.8205 130.343 99.6746 130.195 99.349 130.011C99.0259 129.828 98.5205 129.618 97.8693 129.475C97.5436 129.405 97.1815 129.347 96.7908 129.324C96.4 129.301 95.9806 129.306 95.5534 129.405C94.6989 129.594 93.8497 130.135 93.1802 130.892C92.5003 131.649 92.0835 132.544 91.836 133.386C91.5859 134.231 91.4791 135.025 91.4114 135.688C91.3462 136.354 91.3202 136.895 91.2967 137.269C91.2863 137.443 91.2759 137.586 91.2707 137.701C91.2629 137.8 91.2577 137.852 91.2524 137.852C91.2472 137.852 91.2446 137.8 91.2446 137.701C91.2446 137.586 91.2446 137.443 91.2472 137.269C91.255 136.895 91.2655 136.351 91.3176 135.68C91.3723 135.012 91.4713 134.211 91.7161 133.35C91.9584 132.494 92.383 131.576 93.0786 130.801C93.7637 130.026 94.639 129.472 95.5273 129.282C95.9702 129.184 96.4026 129.181 96.7986 129.212C97.1946 129.241 97.5619 129.303 97.8901 129.381C98.5492 129.537 99.0546 129.763 99.375 129.964C99.5339 130.065 99.6511 130.156 99.7241 130.224C99.797 130.291 99.8335 130.33 99.8309 130.333Z" fill="#263238"/>
<path d="M96.4858 127.488C96.4858 127.477 96.5692 127.464 96.7229 127.449C96.8766 127.431 97.1006 127.425 97.3768 127.441C97.6529 127.454 97.9811 127.501 98.338 127.584C98.6923 127.672 99.0779 127.802 99.4608 127.982C99.8412 128.167 100.185 128.382 100.477 128.604C100.766 128.83 101.008 129.053 101.193 129.261C101.378 129.467 101.516 129.644 101.597 129.774C101.68 129.904 101.725 129.977 101.717 129.982C101.696 129.997 101.506 129.714 101.123 129.327C100.933 129.131 100.688 128.918 100.401 128.705C100.109 128.494 99.7734 128.286 99.4009 128.107C99.0258 127.93 98.6532 127.803 98.3068 127.709C97.9577 127.62 97.6399 127.566 97.369 127.542C96.8297 127.485 96.4884 127.514 96.4858 127.488Z" fill="#263238"/>
<path d="M102.861 126.705C102.858 126.716 102.743 126.705 102.535 126.679C102.327 126.653 102.024 126.622 101.652 126.593C100.907 126.536 99.87 126.523 98.7342 126.659C97.601 126.796 96.5954 127.054 95.8842 127.283C95.5273 127.397 95.2408 127.499 95.0454 127.574C94.85 127.647 94.738 127.683 94.7354 127.675C94.7328 127.668 94.8344 127.613 95.0272 127.525C95.2173 127.434 95.4987 127.319 95.8556 127.192C96.5641 126.937 97.5749 126.661 98.7211 126.523C99.8648 126.388 100.915 126.417 101.662 126.497C102.037 126.536 102.34 126.583 102.545 126.625C102.749 126.669 102.863 126.698 102.861 126.705Z" fill="#263238"/>
<path d="M122.94 112.804C122.938 112.807 122.914 112.778 122.868 112.718C122.818 112.651 122.753 112.565 122.675 112.461C122.503 112.222 122.263 111.891 121.966 111.481C121.357 110.622 120.51 109.429 119.51 108.022L119.619 108.006C119.239 109.119 118.819 110.349 118.379 111.642L118.35 111.722L118.28 111.676C118.233 111.647 118.184 111.613 118.134 111.582C117.551 111.213 117.035 110.768 116.6 110.287C116.165 109.803 115.803 109.288 115.503 108.773C114.904 107.741 114.542 106.724 114.297 105.863C114.052 105 113.924 104.282 113.841 103.79C113.799 103.554 113.768 103.366 113.742 103.223C113.729 103.158 113.716 103.111 113.708 103.078C113.695 103.049 113.69 103.031 113.693 103.031C113.721 103.018 113.797 103.291 113.893 103.782C113.995 104.271 114.135 104.984 114.391 105.84C114.646 106.693 115.013 107.699 115.612 108.713C115.912 109.221 116.269 109.725 116.699 110.201C117.131 110.672 117.637 111.109 118.207 111.47C118.257 111.501 118.306 111.533 118.35 111.561L118.251 111.598C118.697 110.305 119.119 109.077 119.502 107.967L119.541 107.85L119.611 107.951C120.593 109.369 121.427 110.573 122.026 111.439C122.313 111.858 122.539 112.196 122.706 112.44C122.779 112.549 122.836 112.638 122.883 112.708C122.925 112.768 122.943 112.802 122.94 112.804Z" fill="#263238"/>
<g opacity="0.3">
<path opacity="0.3" d="M131.11 124.817C130.818 127.727 131.461 130.723 132.923 133.256C134.382 135.792 136.523 138.049 139.188 139.264C139.274 136.681 139.149 133.639 139.235 131.056L131.11 124.817Z" fill="black"/>
</g>
<path d="M130.815 121.418C130.815 121.418 129.677 121.733 130.531 124.066C131.386 126.396 131.67 126.255 132.24 128.437C132.811 130.617 133.475 132.609 134.473 133.842C135.47 135.074 139.175 137.587 139.175 137.587L142.499 134.458C142.499 134.458 141.952 132.125 142.082 130.541C142.212 128.958 142.546 125.07 142.499 124.406C142.452 123.743 141.738 122.131 141.738 122.131V121.028L140.029 115.777C140.029 115.777 139.078 115.351 138.748 116.867L138.177 115.257C138.177 115.257 137.276 115.114 137.039 116.963C136.802 118.812 137.229 121.371 137.229 121.371L136.755 124.594L136.044 126.773L135.426 126.867C135.426 126.867 134.496 126.614 133.988 124.867C133.472 123.124 132.097 121.038 130.815 121.418Z" fill="#FFBE9D"/>
<path d="M141.381 129.662C141.379 129.662 141.373 129.621 141.366 129.543C141.36 129.452 141.353 129.337 141.342 129.194C141.324 128.877 141.3 128.437 141.272 127.889C141.22 126.757 141.149 125.181 141.066 123.342L141.082 123.381C140.928 123.199 140.657 123.145 140.41 123.207C140.157 123.267 139.933 123.423 139.792 123.657C139.503 124.123 139.485 124.731 139.396 125.319C139.216 126.648 139.045 127.912 138.888 129.067C138.81 129.641 138.727 130.19 138.612 130.697C138.503 131.204 138.349 131.667 138.2 132.081C138.055 132.494 137.924 132.869 137.844 133.207C137.763 133.545 137.729 133.842 137.737 134.086C137.747 134.575 137.89 134.825 137.867 134.83C137.862 134.832 137.836 134.77 137.786 134.648C137.747 134.523 137.693 134.336 137.682 134.089C137.666 133.842 137.692 133.535 137.768 133.191C137.844 132.848 137.969 132.468 138.109 132.052C138.253 131.636 138.398 131.181 138.503 130.676C138.609 130.175 138.688 129.628 138.763 129.054C138.917 127.899 139.084 126.635 139.261 125.306C139.302 125.01 139.334 124.718 139.386 124.424C139.438 124.133 139.519 123.842 139.68 123.592C139.831 123.337 140.097 123.15 140.378 123.085C140.657 123.015 140.988 123.077 141.178 123.306L141.191 123.324V123.345C141.254 125.184 141.308 126.76 141.347 127.894C141.36 128.442 141.373 128.882 141.381 129.202C141.384 129.345 141.384 129.459 141.384 129.55C141.389 129.621 141.386 129.662 141.381 129.662Z" fill="#5862F5"/>
<path d="M139.566 123.689C139.558 123.691 139.506 123.587 139.425 123.392C139.347 123.197 139.243 122.908 139.146 122.542C139.05 122.178 138.959 121.733 138.906 121.236C138.88 120.986 138.862 120.721 138.893 120.446C138.922 120.17 139.003 119.879 139.18 119.631C139.331 119.418 139.545 119.247 139.787 119.176L139.839 119.161L139.865 119.208C140.347 120.055 140.764 120.804 141.058 121.343C141.194 121.595 141.306 121.806 141.399 121.98C141.478 122.131 141.517 122.214 141.509 122.219C141.501 122.224 141.449 122.146 141.358 122.003C141.256 121.837 141.131 121.631 140.983 121.387C140.667 120.859 140.235 120.12 139.748 119.275L139.826 119.306C139.618 119.369 139.427 119.517 139.292 119.712C139.133 119.936 139.055 120.201 139.026 120.461C138.998 120.724 139.011 120.981 139.034 121.226C139.078 121.717 139.157 122.157 139.243 122.521C139.326 122.885 139.414 123.176 139.477 123.376C139.537 123.574 139.573 123.686 139.566 123.689Z" fill="#5862F5"/>
<path d="M138.771 124.115C138.761 124.115 138.75 124.009 138.74 123.814C138.732 123.59 138.719 123.314 138.706 122.989C138.683 122.292 138.662 121.33 138.646 120.266C138.638 119.203 138.597 118.238 138.688 117.538C138.732 117.19 138.802 116.911 138.865 116.727C138.928 116.539 138.98 116.446 138.987 116.448C139.011 116.456 138.842 116.859 138.782 117.551C138.716 118.24 138.771 119.203 138.779 120.266C138.795 121.33 138.8 122.292 138.8 122.989C138.797 123.314 138.792 123.59 138.789 123.816C138.787 124.009 138.779 124.115 138.771 124.115Z" fill="#5862F5"/>
<path d="M135.96 132.856C135.942 132.841 136.148 132.596 136.406 132.152C136.536 131.93 136.669 131.655 136.791 131.343C136.908 131.025 137.015 130.669 137.088 130.287C137.156 129.902 137.179 129.533 137.179 129.195C137.174 128.856 137.145 128.552 137.101 128.302C137.015 127.798 136.906 127.496 136.929 127.488C136.937 127.486 136.971 127.559 137.023 127.694C137.078 127.829 137.138 128.032 137.195 128.284C137.252 128.539 137.291 128.849 137.304 129.192C137.312 129.538 137.289 129.918 137.221 130.31C137.148 130.703 137.036 131.067 136.908 131.387C136.775 131.704 136.63 131.982 136.486 132.201C136.346 132.419 136.218 132.588 136.119 132.695C136.023 132.807 135.968 132.864 135.96 132.856Z" fill="#5862F5"/>
<path d="M141.796 131.225L144.68 132.224C144.68 132.224 147.433 130.801 149.332 132.224C151.231 133.646 152.88 137.394 152.359 138.91C152.359 138.91 151.049 140.525 150.051 140.762C149.053 140.999 145.177 140.062 143.565 139.722C141.947 139.381 139.17 137.579 139.17 137.579L141.796 131.225Z" fill="#FFBE9D"/>
<path d="M142.15 135.47C142.139 135.47 142.129 135.379 142.119 135.215C142.108 135.02 142.093 134.788 142.077 134.52C142.046 133.933 142.007 133.121 141.994 132.221C141.981 131.322 142.007 130.508 142.061 129.92C142.087 129.626 142.119 129.389 142.147 129.225C142.176 129.062 142.197 128.973 142.207 128.976C142.228 128.978 142.184 129.34 142.155 129.925C142.126 130.51 142.116 131.322 142.129 132.219C142.145 133.098 142.16 133.894 142.171 134.518C142.173 134.812 142.173 135.051 142.168 135.215C142.165 135.379 142.158 135.47 142.15 135.47Z" fill="#5862F5"/>
<path d="M151.661 132.112C151.64 132.133 151.343 131.722 150.702 131.249C150.069 130.775 149.043 130.271 147.829 130.203C146.612 130.138 145.536 130.526 144.857 130.926C144.166 131.327 143.828 131.701 143.809 131.678C143.804 131.673 143.885 131.576 144.046 131.42C144.21 131.264 144.463 131.056 144.807 130.843C145.487 130.414 146.586 130 147.837 130.068C149.087 130.138 150.134 130.671 150.762 131.171C151.08 131.42 151.312 131.657 151.455 131.829C151.598 132.003 151.666 132.11 151.661 132.112Z" fill="#263238"/>
<path d="M151.291 129.711C151.273 129.74 150.887 129.35 150.09 129.051C149.306 128.744 148.089 128.603 146.841 128.955C146.219 129.129 145.648 129.376 145.161 129.652C144.674 129.93 144.268 130.234 143.945 130.51C143.622 130.785 143.374 131.027 143.205 131.194C143.035 131.363 142.942 131.454 142.934 131.449C142.929 131.443 143.009 131.339 143.168 131.157C143.327 130.978 143.564 130.726 143.885 130.437C144.202 130.148 144.609 129.831 145.101 129.542C145.594 129.256 146.172 128.999 146.808 128.822C148.087 128.463 149.334 128.624 150.126 128.96C150.528 129.124 150.825 129.313 151.015 129.459C151.114 129.529 151.179 129.597 151.226 129.639C151.27 129.683 151.293 129.709 151.291 129.711Z" fill="#263238"/>
<path d="M151.315 127.631C151.307 127.657 150.804 127.504 149.965 127.392C149.546 127.332 149.043 127.298 148.485 127.298C147.928 127.306 147.316 127.353 146.68 127.459C146.047 127.574 145.456 127.74 144.927 127.922C144.403 128.112 143.942 128.315 143.57 128.515C142.822 128.908 142.4 129.223 142.384 129.202C142.379 129.194 142.481 129.113 142.674 128.97C142.767 128.898 142.887 128.814 143.031 128.726C143.174 128.637 143.335 128.528 143.523 128.432C143.893 128.221 144.356 128.008 144.883 127.808C145.414 127.618 146.013 127.446 146.654 127.329C147.298 127.22 147.918 127.176 148.483 127.176C149.048 127.184 149.556 127.228 149.976 127.301C150.187 127.327 150.374 127.376 150.541 127.41C150.708 127.444 150.848 127.483 150.96 127.517C151.192 127.579 151.317 127.621 151.315 127.631Z" fill="#263238"/>
<path d="M129.213 102.162C129.213 102.162 129.346 102.412 129.414 102.927C129.484 103.439 129.474 104.209 129.304 105.161C129.218 105.637 129.104 106.16 128.932 106.719C128.752 107.278 128.481 107.85 128.174 108.448C127.554 109.644 126.769 110.947 125.866 112.339L125.759 112.503V112.308C125.756 111.39 125.756 110.425 125.754 109.421L125.855 109.47C125.079 110.094 124.263 110.752 123.422 111.431L123.443 111.4C122.88 113.184 122.508 115.171 122.362 117.239C122.125 120.404 122.315 123.431 122.466 126.177C122.594 128.926 122.677 131.405 122.763 133.483C122.846 135.563 122.922 137.243 122.984 138.406C123.018 138.98 123.044 139.43 123.062 139.742C123.073 139.891 123.081 140.005 123.086 140.091C123.091 140.169 123.089 140.211 123.089 140.211C123.089 140.211 123.081 140.172 123.07 140.094C123.062 140.01 123.049 139.893 123.034 139.748C123.005 139.443 122.969 138.991 122.93 138.411C122.851 137.248 122.76 135.568 122.667 133.488C122.573 131.407 122.463 128.931 122.338 126.185C122.182 123.441 121.987 120.406 122.224 117.231C122.372 115.155 122.745 113.158 123.315 111.364L123.32 111.345L123.336 111.332C124.177 110.656 124.995 110.001 125.772 109.377L125.873 109.296V109.426C125.871 110.427 125.871 111.392 125.868 112.313L125.761 112.282C127.551 109.512 129.007 107.104 129.231 105.156C129.411 104.212 129.432 103.45 129.372 102.937C129.346 102.68 129.296 102.49 129.265 102.36C129.231 102.23 129.213 102.162 129.213 102.162Z" fill="#263238"/>
<path d="M124.542 135.711L124.449 135.709C124.071 135.719 123.735 136.062 123.735 136.439C123.735 136.817 124.068 137.162 124.443 137.175C124.821 137.188 125.178 136.866 125.202 136.491C125.228 136.114 124.918 135.748 124.542 135.711Z" fill="white"/>
<path d="M124.542 125.688L124.449 125.686C124.071 125.696 123.735 126.039 123.735 126.416C123.735 126.793 124.068 127.139 124.443 127.152C124.821 127.165 125.178 126.843 125.202 126.468C125.228 126.091 124.918 125.725 124.542 125.688Z" fill="white"/>
<path d="M124.444 116.721C124.821 116.734 125.178 116.412 125.202 116.037C125.228 115.663 124.915 115.296 124.54 115.259L124.446 115.257C124.068 115.267 123.732 115.611 123.732 115.988C123.735 116.362 124.068 116.708 124.444 116.721Z" fill="white"/>
<path d="M113.197 90.4175C112.283 89.4085 111.364 88.3864 110.697 87.2005C110.03 86.0145 109.634 84.6284 109.855 83.2864C109.983 82.501 110.319 81.7546 110.371 80.9614C110.444 79.8691 109.983 78.7274 110.371 77.7053C110.978 76.1059 113.135 75.8588 114.443 74.7535C115.461 73.8927 115.956 72.4961 117.079 71.7705C118.059 71.1385 119.317 71.1515 120.471 71.3154C121.625 71.4792 122.787 71.7705 123.943 71.6144C124.767 71.5026 125.543 71.1723 126.35 70.9721C127.158 70.7718 128.057 70.7198 128.776 71.1359C129.495 71.552 129.898 72.5715 129.427 73.2555C130.766 72.6391 132.467 73.682 132.834 75.1072C133.202 76.5324 132.467 78.0746 131.331 79.0135C130.195 79.9549 128.729 80.3918 127.28 80.6649C123.177 81.4373 118.728 81.0004 115.193 78.7846" fill="#263238"/>
<path d="M127.619 104.188C127.419 102.638 127.254 101.345 127.244 101.184C127.244 101.184 132.433 100.019 132.147 94.7812C132.009 92.2507 131.297 87.0571 130.602 82.368C129.854 77.3331 125.35 73.7181 120.262 74.0562L119.757 74.09C114.323 74.7714 111.869 79.7621 112.703 85.1638L115.633 103.283C115.633 103.283 116.884 107.291 119.562 107.985L122.938 112.801L123.495 110.729L126.012 108.542C126.012 108.542 126.59 107.917 127.252 106.698C127.801 105.699 127.687 104.674 127.619 104.188Z" fill="#FFBE9D"/>
<path d="M127.249 101.106C127.249 101.106 123.954 101.598 120.283 99.6237C120.283 99.6237 122.151 103.283 127.351 102.461L127.249 101.106Z" fill="#5862F5"/>
<path d="M128.919 86.8701C128.96 87.2628 128.658 87.6217 128.247 87.6737C127.835 87.7232 127.47 87.4449 127.429 87.0522C127.39 86.6595 127.689 86.298 128.098 86.2486C128.512 86.1965 128.877 86.4748 128.919 86.8701Z" fill="#263238"/>
<path d="M129.651 85.013C129.565 85.117 128.968 84.7347 128.164 84.7919C127.359 84.8361 126.793 85.2887 126.699 85.1976C126.653 85.156 126.736 84.974 126.981 84.7711C127.223 84.5683 127.643 84.3576 128.145 84.3264C128.648 84.2952 129.083 84.4512 129.338 84.6255C129.596 84.7945 129.693 84.9662 129.651 85.013Z" fill="#263238"/>
<path d="M121.307 87.4132C121.349 87.8059 121.046 88.1648 120.635 88.2168C120.223 88.2663 119.859 87.988 119.817 87.5953C119.778 87.2026 120.077 86.8411 120.486 86.7917C120.901 86.7396 121.265 87.0179 121.307 87.4132Z" fill="#263238"/>
<path d="M121.739 85.6918C121.653 85.7958 121.057 85.4135 120.252 85.4708C119.447 85.515 118.882 85.9675 118.788 85.8765C118.741 85.8349 118.824 85.6528 119.069 85.4499C119.309 85.2471 119.731 85.0364 120.231 85.0052C120.734 84.974 121.169 85.1301 121.424 85.3043C121.687 85.4734 121.784 85.645 121.739 85.6918Z" fill="#263238"/>
<path d="M125.064 91.4626C125.056 91.4184 125.551 91.2961 126.356 91.1401C126.559 91.1063 126.752 91.0517 126.778 90.9086C126.817 90.7578 126.715 90.5419 126.6 90.3079C126.374 89.8241 126.137 89.317 125.887 88.7839C124.892 86.6123 124.157 84.823 124.246 84.784C124.334 84.745 125.212 86.4718 126.205 88.6434C126.444 89.1792 126.673 89.6889 126.892 90.1778C126.986 90.4067 127.137 90.6616 127.054 90.9763C127.009 91.1323 126.866 91.2545 126.736 91.2987C126.606 91.3482 126.491 91.3586 126.389 91.3716C125.577 91.4704 125.071 91.5068 125.064 91.4626Z" fill="#263238"/>
<path d="M121.737 82.5238C121.672 82.7475 120.861 82.6981 119.924 82.8749C118.983 83.0336 118.238 83.3612 118.1 83.1714C118.038 83.0804 118.157 82.8671 118.452 82.633C118.744 82.4016 119.218 82.1675 119.78 82.0661C120.343 81.9673 120.869 82.0219 121.224 82.1389C121.578 82.2585 121.763 82.4198 121.737 82.5238Z" fill="#263238"/>
<path d="M129.198 82.7036C129.067 82.8961 128.499 82.7426 127.832 82.779C127.163 82.792 126.608 82.9845 126.465 82.8025C126.402 82.714 126.478 82.5242 126.715 82.3343C126.947 82.1471 127.345 81.978 127.804 81.9598C128.262 81.9442 128.671 82.0821 128.916 82.2537C129.164 82.428 129.255 82.61 129.198 82.7036Z" fill="#263238"/>
<path d="M113.393 89.0128C113.302 88.979 109.72 88.1884 110.074 91.7618C110.428 95.3325 114.305 94.17 114.302 94.066C114.297 93.962 113.393 89.0128 113.393 89.0128Z" fill="#FFBE9D"/>
<path d="M112.715 92.893C112.7 92.8826 112.658 92.9424 112.557 93.0022C112.458 93.0594 112.286 93.1088 112.093 93.0568C111.702 92.9554 111.324 92.3885 111.244 91.7461C111.202 91.421 111.241 91.1063 111.33 90.8384C111.413 90.5654 111.564 90.3677 111.752 90.3157C111.937 90.2533 112.082 90.3547 112.137 90.4509C112.194 90.5472 112.179 90.62 112.2 90.6226C112.21 90.6304 112.27 90.555 112.228 90.4093C112.207 90.3391 112.155 90.2585 112.064 90.1987C111.97 90.1362 111.843 90.1154 111.71 90.1414C111.436 90.1883 111.212 90.4665 111.113 90.7604C110.999 91.0569 110.949 91.4132 110.996 91.7773C111.09 92.4951 111.525 93.1323 112.059 93.2285C112.317 93.2701 112.52 93.1739 112.619 93.0776C112.715 92.9788 112.728 92.8982 112.715 92.893Z" fill="#5862F5"/>
<path d="M130.341 77.4892C130.097 78.9118 127.208 80.2121 124.813 80.1445C122.607 80.0795 121.515 78.9872 119.911 78.2096C118.895 77.7181 118.895 77.7181 117.519 77.9417C116.404 78.1238 115.829 79.4345 115.201 80.3734C116.391 82.9663 115.909 85.9805 115.407 88.7893C115.352 89.0987 115.282 89.4342 115.045 89.6423C114.643 89.996 113.989 89.7853 113.596 89.4238C112.963 88.8439 112.674 87.9856 112.468 87.156C111.997 85.2627 111.814 83.2784 112.114 81.3486C112.413 79.4189 113.213 77.5464 114.534 76.1056C116.183 74.3059 118.595 73.2682 121.036 73.1434C123.477 73.0186 125.928 73.7728 127.971 75.1095C128.919 75.7259 129.805 76.4905 130.341 77.4892Z" fill="#263238"/>
<path d="M125.59 93.2705C124.983 92.9871 124.373 92.7036 123.766 92.4227C123.662 92.3733 123.55 92.3239 123.435 92.3395C123.305 92.3577 123.203 92.4539 123.12 92.5527C122.698 93.0651 122.591 93.8349 122.917 94.4122C123.245 94.9896 124.013 95.2939 124.628 95.039C125.274 94.7711 125.59 94.0221 125.639 93.3251L125.59 93.2705Z" fill="#5862F5"/>
<path d="M124.686 95.1692C124.691 95.1848 124.602 95.2368 124.42 95.2758C124.24 95.3096 123.959 95.3253 123.636 95.2186C123.315 95.1172 122.953 94.8675 122.729 94.467C122.503 94.0769 122.419 93.5282 122.617 93.0314C122.711 92.7844 122.86 92.5659 123.039 92.3943C123.131 92.3084 123.227 92.2356 123.336 92.1706C123.394 92.1394 123.464 92.1082 123.547 92.103C123.628 92.0978 123.701 92.1186 123.758 92.1446C123.878 92.1966 123.954 92.2538 124.042 92.3058C124.128 92.3578 124.209 92.4099 124.29 92.4593C124.446 92.5581 124.595 92.6491 124.733 92.7375C125.274 93.0808 125.598 93.3071 125.579 93.3409C125.561 93.3721 125.202 93.2031 124.636 92.904C124.493 92.826 124.339 92.7427 124.175 92.6543C124.092 92.6075 124.006 92.5607 123.92 92.5139C123.834 92.4671 123.737 92.4073 123.662 92.3786C123.579 92.35 123.542 92.3526 123.461 92.3969C123.381 92.4463 123.295 92.5139 123.222 92.5867C123.071 92.7349 122.948 92.9196 122.867 93.1303C122.701 93.549 122.761 94.0041 122.946 94.35C123.128 94.6985 123.422 94.9273 123.698 95.0418C123.977 95.1588 124.232 95.1744 124.404 95.1744C124.582 95.1666 124.681 95.1484 124.686 95.1692Z" fill="#263238"/>
<path d="M124.113 86.9588C124.092 86.9614 124.116 86.6259 123.97 86.0537C123.826 85.4946 123.451 84.6701 122.607 84.0304C122.188 83.7183 121.662 83.4556 121.055 83.349C120.453 83.2476 119.77 83.2658 119.124 83.5128C118.799 83.6273 118.483 83.7963 118.197 84.0122C117.905 84.2228 117.639 84.4855 117.421 84.7898C116.97 85.3905 116.715 86.1603 116.707 86.9536C116.715 87.7468 116.967 88.5192 117.421 89.1199C117.639 89.4242 117.905 89.6869 118.197 89.9002C118.486 90.116 118.799 90.2877 119.124 90.3995C119.77 90.6466 120.453 90.6648 121.055 90.5633C121.662 90.4567 122.188 90.194 122.607 89.882C123.451 89.2448 123.826 88.4204 123.97 87.8586C124.116 87.2917 124.09 86.9588 124.113 86.9588C124.116 86.9588 124.116 86.9796 124.116 87.0186C124.116 87.068 124.113 87.1252 124.113 87.1954C124.113 87.2734 124.108 87.3697 124.09 87.4841C124.074 87.5985 124.061 87.7286 124.019 87.8742C123.959 88.1655 123.826 88.5114 123.615 88.8807C123.402 89.2474 123.092 89.6323 122.665 89.96C122.24 90.2851 121.701 90.5607 121.075 90.6752C120.455 90.7844 119.752 90.7688 119.083 90.5191C118.744 90.4047 118.418 90.2279 118.119 90.0042C117.817 89.7857 117.54 89.5153 117.314 89.2006C116.845 88.579 116.579 87.7806 116.571 86.9562C116.579 86.1317 116.845 85.3333 117.314 84.7118C117.54 84.3971 117.817 84.1266 118.119 83.9081C118.418 83.6871 118.744 83.5102 119.083 83.3958C119.752 83.1435 120.455 83.1279 121.075 83.2398C121.701 83.3542 122.24 83.6325 122.665 83.9549C123.092 84.2826 123.402 84.6675 123.615 85.0342C123.826 85.4035 123.959 85.7494 124.019 86.0407C124.061 86.1838 124.074 86.3164 124.09 86.4308C124.108 86.5453 124.113 86.6415 124.113 86.7195C124.113 86.7897 124.116 86.8495 124.116 86.8963C124.116 86.938 124.113 86.9588 124.113 86.9588Z" fill="#263238"/>
<path d="M133.032 86.6101C133.011 86.6127 133.035 86.2851 132.891 85.7285C132.751 85.1824 132.386 84.3787 131.563 83.7598C131.156 83.4555 130.643 83.198 130.052 83.0966C129.466 82.9978 128.802 83.016 128.171 83.2578C127.853 83.3671 127.548 83.5335 127.267 83.7442C126.983 83.9496 126.725 84.2071 126.512 84.5036C126.071 85.0887 125.824 85.8377 125.816 86.6127C125.824 87.3878 126.071 88.1368 126.509 88.7219C126.723 89.0184 126.981 89.2733 127.265 89.4813C127.546 89.692 127.851 89.8584 128.168 89.9677C128.799 90.2069 129.461 90.2277 130.049 90.1263C130.641 90.0223 131.154 89.7648 131.56 89.4631C132.383 88.8416 132.748 88.0405 132.886 87.4944C133.035 86.9326 133.011 86.6075 133.032 86.6101C133.037 86.6101 133.037 86.6908 133.035 86.8416C133.035 86.917 133.032 87.0133 133.014 87.1225C132.998 87.2343 132.985 87.3618 132.946 87.5022C132.819 88.0587 132.462 88.8884 131.625 89.5359C131.211 89.8532 130.685 90.1237 130.075 90.2329C129.471 90.3396 128.786 90.324 128.132 90.0795C127.804 89.9677 127.486 89.796 127.194 89.5776C126.9 89.3643 126.632 89.1016 126.41 88.7947C125.952 88.1888 125.694 87.4112 125.688 86.6075C125.696 85.8039 125.954 85.0263 126.413 84.4204C126.634 84.1135 126.902 83.8482 127.197 83.6375C127.489 83.4217 127.806 83.25 128.135 83.1382C128.788 82.8937 129.474 82.8781 130.078 82.9848C130.688 83.0966 131.214 83.3671 131.628 83.6818C132.464 84.3293 132.821 85.1564 132.949 85.7155C132.988 85.8559 133.003 85.9834 133.016 86.0952C133.035 86.2044 133.04 86.3007 133.037 86.3761C133.037 86.5295 133.037 86.6101 133.032 86.6101Z" fill="#263238"/>
<path d="M125.754 85.7856C125.738 85.8012 125.652 85.7284 125.496 85.653C125.339 85.5776 125.105 85.5047 124.839 85.51C124.576 85.5126 124.342 85.5958 124.188 85.6764C124.032 85.757 123.951 85.8324 123.935 85.8194C123.922 85.809 123.982 85.705 124.139 85.5958C124.292 85.4865 124.542 85.3799 124.837 85.3747C125.128 85.3695 125.384 85.4657 125.543 85.5698C125.699 85.6764 125.764 85.7752 125.754 85.7856Z" fill="#263238"/>
<path d="M116.866 86.4306C116.889 86.4618 116.157 87.0444 115.232 87.731C114.307 88.4202 113.542 88.9533 113.518 88.9247C113.495 88.8935 114.227 88.3135 115.151 87.6243C116.076 86.9326 116.845 86.3994 116.866 86.4306Z" fill="#263238"/>
<g opacity="0.3">
<path opacity="0.3" d="M113.783 103.356C113.421 106.885 114.766 110.612 117.6 112.75C117.821 112.919 118.103 113.083 118.363 112.989C118.545 112.924 118.663 112.75 118.759 112.581C119.567 111.184 119.838 109.642 119.606 108.045C119.158 109.226 118.772 110.383 118.319 111.618C115.847 110.123 114.307 106.94 113.783 103.356Z" fill="black"/>
</g>
<path opacity="0.3" d="M123.383 111.382L125.465 110.622L125.809 114.136C125.809 114.136 128.054 110.05 128.984 108.185C129.914 106.321 129.435 103.031 129.435 103.031C129.435 103.031 129.768 105.897 127.518 109.551L125.819 112.308V109.421L123.383 111.382Z" fill="black"/>
<g opacity="0.3">
<path opacity="0.3" d="M99.177 129.238C98.2496 128.801 97.1815 128.741 96.163 128.861C95.0871 128.986 94.006 129.316 93.162 129.995C92.3179 130.674 91.7474 131.745 91.8516 132.822L91.9558 132.838C92.6826 130.877 94.1258 129.449 95.9884 129.275C97.851 129.103 99.6668 129.93 100.946 131.293C100.821 130.273 100.104 129.675 99.177 129.238Z" fill="black"/>
</g>
<g opacity="0.3">
<path opacity="0.3" d="M151.797 131.243C151.099 130.492 150.119 130.037 149.108 129.86C147.334 129.55 145.43 130.102 144.094 131.308L144.49 130.986C145.498 130.395 146.66 130.047 147.829 130.081C148.996 130.115 150.166 130.546 151.013 131.35C151.792 132.091 152.258 133.09 152.703 134.065C152.878 133.056 152.492 131.995 151.797 131.243Z" fill="black"/>
</g>
<path d="M138.383 114.927C138.375 114.924 138.409 114.823 138.477 114.643C138.557 114.438 138.656 114.185 138.774 113.886C139.026 113.249 139.37 112.367 139.738 111.39C140.102 110.409 140.417 109.517 140.644 108.87C140.751 108.568 140.842 108.313 140.915 108.105C140.98 107.925 141.022 107.827 141.03 107.829C141.037 107.832 141.014 107.936 140.965 108.121C140.915 108.305 140.837 108.573 140.735 108.901C140.532 109.556 140.23 110.456 139.865 111.436C139.501 112.417 139.138 113.293 138.865 113.923C138.727 114.237 138.612 114.49 138.529 114.664C138.44 114.836 138.391 114.929 138.383 114.927Z" fill="#263238"/>
<path d="M105.541 115.181C105.505 115.189 105.221 113.951 104.908 112.417C104.596 110.882 104.372 109.634 104.408 109.626C104.445 109.618 104.729 110.856 105.041 112.391C105.354 113.925 105.578 115.173 105.541 115.181Z" fill="#263238"/>
<path d="M105.049 130.653C105.132 130.695 104.095 122.549 104.095 122.549C104.095 122.549 104.749 116.368 105.116 116.081L105.127 113.899C105.127 113.899 106.14 113.286 106.411 114.277C106.411 114.277 107.31 113.499 107.466 115.351C107.622 117.205 107.656 119.098 107.656 119.098L109.654 124.086L109.983 124.253C109.983 124.253 110.412 120.344 110.663 119.769C110.913 119.195 111.085 117.795 112.03 118.006C112.978 118.217 113.057 118.999 112.887 120.274C112.718 121.548 112.504 122.864 112.585 123.689C112.663 124.513 113.038 126.326 112.924 127.764C112.809 129.205 112.02 130.723 111.189 131.79C110.36 132.856 108.776 135.061 107.914 135.727C107.612 135.959 105.049 130.653 105.049 130.653Z" fill="#FFBE9D"/>
<path d="M106.057 124.024C106.046 124.024 106.049 123.899 106.062 123.675C106.08 123.426 106.101 123.108 106.127 122.729C106.187 121.93 106.281 120.827 106.393 119.61C106.45 119.004 106.505 118.424 106.554 117.897C106.58 117.634 106.596 117.387 106.562 117.161C106.531 116.934 106.442 116.739 106.312 116.599C106.049 116.313 105.708 116.24 105.497 116.242C105.275 116.24 105.161 116.3 105.155 116.287C105.153 116.281 105.181 116.268 105.236 116.245C105.294 116.224 105.379 116.198 105.494 116.19C105.718 116.175 106.083 116.232 106.382 116.536C106.531 116.687 106.635 116.906 106.672 117.145C106.713 117.387 106.698 117.644 106.677 117.91C106.63 118.44 106.578 119.017 106.526 119.626C106.414 120.843 106.304 121.943 106.221 122.739C106.177 123.116 106.14 123.433 106.111 123.68C106.088 123.902 106.067 124.024 106.057 124.024Z" fill="#5862F5"/>
<path d="M107.133 120.692C107.151 120.708 106.93 120.903 106.778 121.335C106.617 121.759 106.56 122.399 106.445 123.093C106.338 123.79 106.231 124.419 106.151 124.872C106.067 125.327 106.007 125.605 105.989 125.603C105.971 125.6 105.997 125.314 106.057 124.856C106.114 124.398 106.205 123.767 106.312 123.07C106.424 122.378 106.497 121.735 106.69 121.296C106.781 121.077 106.89 120.919 106.979 120.82C107.065 120.726 107.128 120.687 107.133 120.692Z" fill="#5862F5"/>
<path d="M106.398 114.167C106.409 114.165 106.432 114.256 106.469 114.425C106.505 114.591 106.549 114.833 106.599 115.135C106.698 115.735 106.807 116.57 106.878 117.499C106.945 118.427 106.961 119.27 106.95 119.878C106.945 120.183 106.937 120.43 106.924 120.599C106.914 120.768 106.904 120.861 106.893 120.861C106.872 120.861 106.87 120.484 106.854 119.878C106.838 119.27 106.81 118.432 106.742 117.509C106.674 116.586 106.581 115.751 106.505 115.148C106.429 114.544 106.377 114.172 106.398 114.167Z" fill="#5862F5"/>
<path d="M112.163 121.806C112.184 121.837 111.872 121.98 111.491 121.863C111.108 121.749 110.931 121.455 110.965 121.442C110.996 121.416 111.194 121.637 111.53 121.736C111.864 121.84 112.153 121.767 112.163 121.806Z" fill="#5862F5"/>
<path d="M105.161 129.639L99.8805 131.855H96.7336C96.7336 131.855 93.6232 132.825 93.1438 135.735C92.6645 138.648 92.5968 140.146 93.9644 140.505C95.3321 140.863 99.1954 140.905 101.11 140.27C103.025 139.636 108.04 135.594 108.04 135.594L108.524 132.671L105.161 129.639Z" fill="#FFBE9D"/>
<path d="M106.398 132.856C106.39 132.861 106.338 132.814 106.247 132.718C106.153 132.627 106.039 132.476 105.903 132.284C105.643 131.893 105.356 131.303 105.166 130.617C104.968 129.93 104.885 129.288 104.84 128.825C104.801 128.362 104.801 128.073 104.819 128.07C104.84 128.068 104.872 128.354 104.934 128.812C105.002 129.269 105.101 129.901 105.294 130.578C105.481 131.256 105.747 131.836 105.981 132.232C106.224 132.627 106.416 132.84 106.398 132.856Z" fill="#5862F5"/>
<path d="M108.696 133.782C108.667 133.771 108.904 133.371 108.996 132.65C109.04 132.294 109.035 131.86 108.933 131.394C108.831 130.929 108.61 130.45 108.287 130.003C107.967 129.553 107.604 129.163 107.302 128.786C106.995 128.408 106.75 128.042 106.588 127.709C106.427 127.376 106.351 127.082 106.323 126.877C106.297 126.671 106.307 126.557 106.315 126.557C106.341 126.552 106.333 127.022 106.674 127.665C106.841 127.985 107.091 128.338 107.399 128.705C107.706 129.074 108.071 129.464 108.399 129.922C108.73 130.377 108.962 130.882 109.058 131.363C109.157 131.844 109.149 132.294 109.092 132.658C109.035 133.025 108.933 133.308 108.85 133.495C108.811 133.589 108.772 133.659 108.743 133.706C108.717 133.761 108.701 133.784 108.696 133.782Z" fill="#5862F5"/>
<path d="M100.558 121.088C100.524 121.106 99.9483 120.058 99.2709 118.75C98.5936 117.442 98.0726 116.368 98.1039 116.349C98.1377 116.331 98.7135 117.379 99.3908 118.687C100.068 119.998 100.589 121.072 100.558 121.088Z" fill="white"/>
<path d="M109.097 111.6C109.063 111.585 109.42 110.713 109.891 109.652C110.366 108.591 110.777 107.743 110.811 107.759C110.845 107.775 110.488 108.646 110.017 109.707C109.542 110.765 109.131 111.613 109.097 111.6Z" fill="white"/>
<path d="M117.456 117.759C117.428 117.782 116.891 117.184 116.261 116.422C115.628 115.66 115.141 115.023 115.169 115C115.198 114.976 115.734 115.574 116.365 116.336C116.998 117.098 117.485 117.736 117.456 117.759Z" fill="white"/>
<path d="M115.534 126.229C115.503 126.209 115.906 125.6 116.435 124.872C116.964 124.144 117.417 123.572 117.446 123.595C117.477 123.616 117.073 124.224 116.545 124.952C116.016 125.678 115.565 126.25 115.534 126.229Z" fill="white"/>
<path d="M112.945 138.195C112.929 138.203 112.809 138.005 112.64 137.672C112.468 137.339 112.246 136.874 112.025 136.351C111.801 135.826 111.621 135.345 111.499 134.991C111.379 134.637 111.316 134.413 111.335 134.408C111.353 134.403 111.447 134.614 111.59 134.957C111.754 135.347 111.942 135.8 112.15 136.299C112.364 136.796 112.559 137.243 112.728 137.633C112.874 137.971 112.963 138.185 112.945 138.195Z" fill="white"/>
<path d="M120.301 133.108C120.293 133.145 119.585 133.038 118.72 132.872C117.852 132.705 117.157 132.539 117.165 132.502C117.172 132.466 117.881 132.572 118.746 132.739C119.611 132.905 120.309 133.072 120.301 133.108Z" fill="white"/>
<path d="M126.006 121.928C125.978 121.902 126.655 121.132 127.515 120.204C128.374 119.278 129.096 118.547 129.122 118.573C129.151 118.599 128.473 119.369 127.614 120.297C126.754 121.223 126.035 121.954 126.006 121.928Z" fill="white"/>
<path d="M131.748 136.837C131.719 136.861 130.878 135.888 129.867 134.663C128.856 133.438 128.062 132.427 128.091 132.403C128.119 132.38 128.961 133.353 129.971 134.577C130.982 135.802 131.777 136.814 131.748 136.837Z" fill="white"/>
<path d="M96.1134 130.484C96.1317 130.52 95.3632 130.91 94.5243 131.553C93.6829 132.19 93.102 132.83 93.0707 132.801C93.0577 132.791 93.1854 132.616 93.425 132.359C93.6621 132.104 94.0164 131.771 94.441 131.446C94.8656 131.124 95.2824 130.871 95.5924 130.708C95.905 130.546 96.1056 130.468 96.1134 130.484Z" fill="white"/>
<path d="M98.2597 124.736C98.291 124.757 98.0175 125.223 97.6475 125.777C97.2776 126.331 96.9546 126.762 96.9233 126.742C96.8921 126.721 97.1656 126.255 97.5355 125.701C97.9054 125.147 98.2285 124.716 98.2597 124.736Z" fill="white"/>
<path d="M103.098 130.38C103.069 130.398 102.796 129.943 102.655 129.311C102.509 128.682 102.559 128.154 102.592 128.156C102.634 128.156 102.647 128.669 102.788 129.28C102.923 129.894 103.134 130.362 103.098 130.38Z" fill="white"/>
<path d="M103.814 112.456C103.819 112.493 103.371 112.589 102.811 112.667C102.251 112.747 101.792 112.781 101.787 112.742C101.782 112.706 102.23 112.61 102.79 112.532C103.35 112.454 103.809 112.417 103.814 112.456Z" fill="white"/>
<path d="M107.445 106.024C107.463 106.058 107.07 106.31 106.567 106.589C106.065 106.867 105.64 107.067 105.622 107.033C105.603 106.999 105.997 106.747 106.5 106.469C107.005 106.191 107.427 105.993 107.445 106.024Z" fill="white"/>
<path d="M117.66 108.742C117.631 108.766 117.18 108.225 116.654 107.536C116.128 106.846 115.727 106.272 115.758 106.248C115.787 106.225 116.237 106.766 116.764 107.455C117.287 108.142 117.688 108.719 117.66 108.742Z" fill="white"/>
<path d="M130.625 115.207C130.599 115.231 130.125 114.744 129.687 114.037C129.244 113.33 129.017 112.692 129.049 112.679C129.085 112.664 129.367 113.27 129.802 113.967C130.234 114.661 130.656 115.181 130.625 115.207Z" fill="white"/>
<path d="M135.575 116.836C135.608 116.851 135.369 117.455 135.038 118.18C134.707 118.909 134.413 119.486 134.376 119.47C134.342 119.455 134.582 118.851 134.913 118.126C135.244 117.398 135.541 116.82 135.575 116.836Z" fill="white"/>
<path d="M136.265 110.092C136.237 110.116 135.648 109.458 134.95 108.62C134.252 107.783 133.71 107.083 133.738 107.06C133.767 107.036 134.356 107.694 135.054 108.532C135.752 109.372 136.294 110.069 136.265 110.092Z" fill="white"/>
<path d="M128.708 104.615C128.671 104.617 128.617 104.053 128.591 103.353C128.562 102.656 128.572 102.09 128.609 102.087C128.645 102.084 128.7 102.649 128.726 103.348C128.752 104.045 128.744 104.612 128.708 104.615Z" fill="white"/>
<path d="M134.872 104.274C134.877 104.311 134.155 104.438 133.264 104.558C132.371 104.677 131.644 104.742 131.639 104.706C131.633 104.669 132.352 104.542 133.246 104.422C134.137 104.303 134.866 104.235 134.872 104.274Z" fill="white"/>
<path d="M144.578 111.392C144.544 111.408 144.111 110.583 143.609 109.551C143.108 108.518 142.728 107.665 142.762 107.65C142.796 107.634 143.228 108.458 143.731 109.491C144.231 110.523 144.611 111.374 144.578 111.392Z" fill="white"/>
<path d="M142.942 117.543C142.906 117.535 143.007 116.872 143.169 116.063C143.33 115.252 143.492 114.602 143.528 114.609C143.565 114.617 143.463 115.28 143.301 116.089C143.14 116.898 142.978 117.548 142.942 117.543Z" fill="white"/>
<path d="M147.443 122.391C147.407 122.404 147.063 121.509 146.67 120.393C146.279 119.278 145.99 118.362 146.026 118.349C146.063 118.336 146.406 119.231 146.8 120.347C147.191 121.465 147.48 122.378 147.443 122.391Z" fill="white"/>
<path d="M146.818 125.225C146.81 125.259 146.188 125.129 145.503 124.755C144.815 124.385 144.364 123.935 144.39 123.912C144.416 123.881 144.896 124.276 145.568 124.638C146.235 125.002 146.829 125.186 146.818 125.225Z" fill="white"/>
<path d="M152.586 131.693C152.552 131.709 152.344 131.314 152.12 130.812C151.896 130.31 151.742 129.891 151.776 129.875C151.81 129.86 152.018 130.255 152.242 130.757C152.466 131.259 152.62 131.678 152.586 131.693Z" fill="white"/>
<path d="M118.522 140.712C118.486 140.718 118.394 140.2 118.319 139.56C118.243 138.921 118.215 138.398 118.251 138.393C118.288 138.387 118.379 138.905 118.454 139.545C118.53 140.185 118.558 140.707 118.522 140.712Z" fill="white"/>
<path d="M136.218 140.265C136.182 140.257 136.257 139.753 136.387 139.139C136.518 138.525 136.653 138.034 136.69 138.042C136.726 138.049 136.651 138.554 136.52 139.168C136.39 139.781 136.255 140.273 136.218 140.265Z" fill="white"/>
<path d="M139.61 88.696L141.898 84.6701C140.884 83.029 140.301 81.0993 140.301 79.0317C140.301 73.0839 145.13 68.2622 151.088 68.2622C157.046 68.2622 161.876 73.0839 161.876 79.0317C161.876 84.9795 157.046 89.8013 151.088 89.8013C148.6 89.8013 146.311 88.9586 144.487 87.5464L144.49 87.5516L139.61 88.696Z" fill="#FAFAFA"/>
<path d="M139.61 88.6957C139.842 88.6437 141.387 88.29 144.497 87.58L144.547 87.5696L144.516 87.528L144.513 87.5228L144.466 87.5696C145.081 88.0455 145.818 88.5136 146.686 88.9063C147.553 89.2912 148.548 89.6033 149.645 89.749C150.192 89.8192 150.765 89.8634 151.354 89.8348C151.648 89.8192 151.948 89.8114 152.25 89.7854C152.55 89.7412 152.854 89.6944 153.162 89.6475C154.384 89.4057 155.631 88.9428 156.799 88.2224C157.963 87.502 159.041 86.5267 159.906 85.3278C160.769 84.1288 161.422 82.7089 161.73 81.1666C162.032 79.6244 162.009 77.973 161.602 76.3735C161.193 74.7793 160.43 73.2241 159.289 71.9445L158.849 71.4608C158.703 71.297 158.531 71.1643 158.375 71.0135C158.21 70.8731 158.062 70.7118 157.885 70.587L157.366 70.1995C157.2 70.0642 157.015 69.955 156.83 69.8458C156.647 69.7339 156.465 69.6247 156.283 69.5129C156.09 69.4193 155.9 69.3282 155.71 69.2346C155.517 69.1462 155.332 69.0422 155.131 68.9771C153.563 68.3556 151.893 68.1189 150.294 68.2359C148.694 68.3504 147.165 68.8081 145.855 69.5467C144.539 70.2775 143.429 71.2554 142.572 72.345C141.713 73.4373 141.108 74.6389 140.733 75.8378C140.361 77.0419 140.259 78.2356 140.264 79.3409C140.295 80.4488 140.499 81.4709 140.793 82.3656C141.087 83.2628 141.476 84.0352 141.874 84.6828V84.6516C140.428 87.2367 139.722 88.498 139.61 88.6957C139.725 88.498 140.447 87.2471 141.926 84.6854L141.937 84.6698L141.926 84.6542C141.533 84.0066 141.153 83.2368 140.863 82.3448C140.577 81.4527 140.379 80.441 140.353 79.3409C140.353 78.2434 140.457 77.0627 140.83 75.8716C141.205 74.6857 141.806 73.4972 142.658 72.4179C143.508 71.3412 144.607 70.3763 145.909 69.6559C147.207 68.9277 148.72 68.4778 150.299 68.366C151.878 68.2541 153.529 68.4882 155.077 69.102C155.275 69.1644 155.457 69.2684 155.647 69.3568C155.835 69.4479 156.025 69.5389 156.212 69.6325C156.392 69.7417 156.572 69.851 156.752 69.9602C156.934 70.0694 157.116 70.1761 157.28 70.3113L157.791 70.6936C157.966 70.8158 158.111 70.9745 158.273 71.1149C158.427 71.2632 158.599 71.3958 158.742 71.557L159.177 72.0356C160.305 73.2995 161.058 74.8365 161.462 76.41C161.863 77.9886 161.889 79.6218 161.592 81.1458C161.29 82.6699 160.646 84.0768 159.794 85.2602C158.942 86.4487 157.877 87.4161 156.726 88.1287C155.574 88.8465 154.339 89.3069 153.131 89.5487C152.826 89.5955 152.524 89.6423 152.229 89.6866C151.93 89.7126 151.633 89.7204 151.344 89.7386C150.76 89.7698 150.192 89.7256 149.65 89.6579C148.561 89.5175 147.574 89.2106 146.712 88.8335C145.849 88.4486 145.115 87.9883 144.5 87.5202L144.299 87.3667L144.453 87.567L144.456 87.5722L144.474 87.5202C141.382 88.2666 139.842 88.6411 139.61 88.6957Z" fill="#263238"/>
<path d="M154.001 78.5816C154.001 79.1616 154.472 79.6349 155.056 79.6349C155.64 79.6349 156.111 79.1642 156.111 78.5816C156.111 78.0016 155.64 77.5283 155.056 77.5283C154.472 77.5283 154.001 77.999 154.001 78.5816Z" fill="#263238"/>
<path d="M149.783 78.5816C149.783 79.1616 150.255 79.6349 150.838 79.6349C151.422 79.6349 151.893 79.1642 151.893 78.5816C151.893 78.0016 151.422 77.5283 150.838 77.5283C150.255 77.5283 149.783 77.999 149.783 78.5816Z" fill="#263238"/>
<path d="M145.574 78.057C145.282 78.5615 145.456 79.2039 145.959 79.4952C146.465 79.7865 147.108 79.6122 147.4 79.1103C147.691 78.6057 147.517 77.9634 147.014 77.6721C146.511 77.3808 145.865 77.5524 145.574 78.057Z" fill="#263238"/>
</g>
<path d="M21.4296 100.164C21.3671 96.2267 24.5114 92.9706 28.4372 92.9056C32.3656 92.8432 35.6115 95.9952 35.6741 99.9327C35.7366 103.87 32.5923 107.126 28.6665 107.191C24.738 107.256 21.4921 104.104 21.4296 100.164ZM31.9566 99.9951C31.9254 98.1122 30.3754 96.6038 28.4971 96.635C26.6189 96.6662 25.1158 98.2214 25.147 100.104C25.1783 101.987 26.7283 103.496 28.6065 103.464C30.4822 103.436 31.9853 101.878 31.9566 99.9951Z" fill="white"/>
<path d="M21.4296 100.164C21.3671 96.2264 24.5114 92.9703 28.4372 92.9053L28.4971 96.6321C26.6189 96.6633 25.1158 98.2185 25.147 100.101C25.1783 101.984 26.7283 103.493 28.6065 103.462L28.6665 107.188C24.738 107.256 21.4921 104.104 21.4296 100.164Z" fill="white"/>
<path d="M27.7964 92.3331C32.3917 92.2603 36.057 95.8181 36.13 100.427L31.7821 100.497C31.7456 98.2939 30.068 96.9052 27.8719 96.9416L27.7964 92.3331Z" fill="white"/>
<path d="M218.508 86.8277L232.875 84.6353C234.079 92.5024 228.585 99.9664 220.704 101.168C212.824 102.369 205.348 96.8846 204.144 89.0174C202.94 81.1503 208.435 73.6863 216.315 72.4848C217.57 72.2923 218.844 72.2663 220.105 72.4067L218.508 86.8277Z" fill="white"/>
<path d="M223.169 72.4507L221.423 83.5687L232.354 81.5193C232.354 81.5193 230.747 75.2881 223.169 72.4507Z" fill="white"/>
<defs>
<clipPath id="clip0_1_521">
<rect width="183.763" height="104.314" fill="white" transform="translate(32.9517 52.3042)"/>
</clipPath>
</defs>
</svg>
