<svg width="192" height="36" viewBox="0 0 192 36" fill="none" xmlns="http://www.w3.org/2000/svg">
<path d="M0 35.9883L4.04675 28.9883H36.4146L12.1403 14.9883L20.2338 0.988281L40.4614 35.9883H0Z" fill="white"/>
<path d="M72.6591 29.006H70.8381V15.0488H56.5641L49.2064 27.775C48.7649 28.5344 47.9555 29.006 47.0726 29.006H45.6562V33.3848H72.6591V29.006ZM59.8505 19.4277H66.0004V29.006H54.3261L59.8505 19.4277Z" fill="white"/>
<path d="M95.7874 29.006H98.0805C98.663 29.006 99.1597 28.5956 99.27 28.0261L101.784 15.0488H117.554V33.3848H112.716V19.4215H105.867L104.004 29.0182C103.513 31.5536 101.287 33.3848 98.6998 33.3848H95.7812V29.006H95.7874Z" fill="white"/>
<path d="M132.529 19.4399H124.08V15.0488H119.242V33.3848H132.529C136.386 33.3848 139.513 30.2614 139.513 26.4093C139.513 22.5633 136.386 19.4399 132.529 19.4399ZM131.873 29.006H124.08V23.8126H131.873C133.308 23.8126 134.473 24.9762 134.473 26.4093C134.473 27.8424 133.314 29.006 131.873 29.006Z" fill="white"/>
<path d="M94.3811 29.006H78.8992V26.4032H92.744V22.0305H78.8992V19.4215H94.0071V15.0488H74.0615V33.3848L94.3811 33.3787V29.006Z" fill="white"/>
<path d="M186.175 33.3848H191.999L181.423 15.0488H174.022L163.445 33.3848H169.27L170.533 31.1923H184.918L186.175 33.3848ZM173.053 26.8196L177.321 19.4277H178.124L182.391 26.8196H173.053Z" fill="white"/>
<path d="M159.49 17.2416H155.878V15.043H151.04V17.2416H147.429C143.572 17.2416 140.445 20.3649 140.445 24.2171C140.445 28.0692 143.572 31.1926 147.429 31.1926H151.04V33.3912H155.878V31.1926H159.49C163.346 31.1926 166.473 28.0692 166.473 24.2171C166.473 20.3588 163.346 17.2416 159.49 17.2416ZM151.04 26.8076H148.079C146.644 26.8076 145.479 25.644 145.479 24.2109C145.479 22.7779 146.644 21.6143 148.079 21.6143H151.04V26.8076ZM158.833 26.8076H155.872V21.6143H158.833C160.268 21.6143 161.433 22.7779 161.433 24.2109C161.433 25.644 160.268 26.8076 158.833 26.8076Z" fill="white"/>
</svg>
